<svg width="48" height="48" viewBox="0 0 48 48" fill="none" xmlns="http://www.w3.org/2000/svg">
<mask id="path-1-inside-1_3947_1072" fill="white">
<path d="M28.3117 23.6441C28.0709 23.6441 27.8473 23.5779 27.6487 23.4715V23.4743C27.6487 23.8531 27.5014 24.2089 27.2343 24.4754C26.9671 24.7425 26.6116 24.8898 26.2332 24.8898C25.9889 24.8898 25.7625 24.8219 25.5617 24.7126C25.5415 25.0592 25.4029 25.3831 25.1558 25.6305C24.8886 25.8977 24.5331 26.0449 24.1545 26.0449C23.4022 26.0449 22.7913 25.4536 22.7473 24.7124C22.5145 24.8382 22.2513 24.9041 21.9799 24.8867C21.2398 24.8382 20.6603 24.1988 20.6603 23.4307V17.064L19.9353 18.32C19.6592 18.8004 19.1423 19.0986 18.5858 19.0986C18.3147 19.0986 18.0468 19.0275 17.8095 18.8916C17.5141 18.7203 17.3028 18.4453 17.2149 18.1164C17.1265 17.7873 17.1722 17.4431 17.3431 17.1481C17.3433 17.1481 19.715 13.0409 19.8597 12.7886C19.8769 12.7507 19.9259 12.6406 19.9676 12.5469C20.0075 12.4573 20.0416 12.3655 20.0744 12.2731C20.7896 10.2538 22.5607 8.99949 24.6966 8.99949C27.4703 8.99949 29.7268 11.4464 29.7268 14.4541L29.727 22.2284C29.727 22.6068 29.58 22.9623 29.3131 23.2298C29.0459 23.4969 28.6904 23.6442 28.3116 23.6442L28.3117 23.6441ZM24.6966 9.75163C22.8613 9.75163 21.3984 10.7883 20.7833 12.5246C20.744 12.6349 20.703 12.7452 20.6552 12.8526C20.5164 13.1638 20.5164 13.1638 20.4773 13.2086L20.4721 13.2041C20.2784 13.5695 19.7031 14.5659 17.9943 17.5245C17.9241 17.6458 17.9055 17.7867 17.9413 17.9215C17.9776 18.0563 18.0645 18.1698 18.1849 18.2393C18.5586 18.4539 19.0703 18.3154 19.2833 17.9443L20.7108 15.4729C20.7961 15.3257 20.9685 15.2533 21.1339 15.2981C21.2983 15.3421 21.4126 15.4913 21.4126 15.6614V23.4309C21.4126 23.7975 21.6892 24.1139 22.0292 24.1363C22.2252 24.1466 22.408 24.0809 22.5454 23.9438C22.6702 23.8189 22.739 23.6526 22.739 23.4747V18.3933C22.739 18.1855 22.9075 18.0171 23.1153 18.0171C23.3231 18.0171 23.4915 18.1853 23.4915 18.3933L23.4913 24.6297C23.4913 24.9954 23.7889 25.2929 24.1545 25.2929C24.3321 25.2929 24.499 25.2241 24.6241 25.0992C24.7489 24.9741 24.8177 24.8073 24.8177 24.6297V18.3933C24.8177 18.1855 24.9859 18.0171 25.194 18.0171C25.4018 18.0171 25.5702 18.1853 25.5702 18.3933L25.57 23.4163V23.4747C25.57 23.8401 25.8675 24.1377 26.2334 24.1377C26.4108 24.1377 26.5772 24.0686 26.703 23.9433C26.8278 23.8187 26.8966 23.6523 26.8966 23.4744V18.3931C26.8966 18.1853 27.0649 18.0168 27.2729 18.0168C27.4807 18.0168 27.6491 18.185 27.6491 18.3931L27.6487 22.2286C27.6487 22.5945 27.9462 22.8921 28.3116 22.8921C28.4895 22.8921 28.6558 22.823 28.7807 22.6984C28.906 22.5731 28.9746 22.4063 28.9746 22.2286L28.9748 14.4543C28.9748 11.8615 27.0557 9.75171 24.6966 9.75171L24.6966 9.75163Z"/>
</mask>
<path d="M28.3117 23.6441C28.0709 23.6441 27.8473 23.5779 27.6487 23.4715V23.4743C27.6487 23.8531 27.5014 24.2089 27.2343 24.4754C26.9671 24.7425 26.6116 24.8898 26.2332 24.8898C25.9889 24.8898 25.7625 24.8219 25.5617 24.7126C25.5415 25.0592 25.4029 25.3831 25.1558 25.6305C24.8886 25.8977 24.5331 26.0449 24.1545 26.0449C23.4022 26.0449 22.7913 25.4536 22.7473 24.7124C22.5145 24.8382 22.2513 24.9041 21.9799 24.8867C21.2398 24.8382 20.6603 24.1988 20.6603 23.4307V17.064L19.9353 18.32C19.6592 18.8004 19.1423 19.0986 18.5858 19.0986C18.3147 19.0986 18.0468 19.0275 17.8095 18.8916C17.5141 18.7203 17.3028 18.4453 17.2149 18.1164C17.1265 17.7873 17.1722 17.4431 17.3431 17.1481C17.3433 17.1481 19.715 13.0409 19.8597 12.7886C19.8769 12.7507 19.9259 12.6406 19.9676 12.5469C20.0075 12.4573 20.0416 12.3655 20.0744 12.2731C20.7896 10.2538 22.5607 8.99949 24.6966 8.99949C27.4703 8.99949 29.7268 11.4464 29.7268 14.4541L29.727 22.2284C29.727 22.6068 29.58 22.9623 29.3131 23.2298C29.0459 23.4969 28.6904 23.6442 28.3116 23.6442L28.3117 23.6441ZM24.6966 9.75163C22.8613 9.75163 21.3984 10.7883 20.7833 12.5246C20.744 12.6349 20.703 12.7452 20.6552 12.8526C20.5164 13.1638 20.5164 13.1638 20.4773 13.2086L20.4721 13.2041C20.2784 13.5695 19.7031 14.5659 17.9943 17.5245C17.9241 17.6458 17.9055 17.7867 17.9413 17.9215C17.9776 18.0563 18.0645 18.1698 18.1849 18.2393C18.5586 18.4539 19.0703 18.3154 19.2833 17.9443L20.7108 15.4729C20.7961 15.3257 20.9685 15.2533 21.1339 15.2981C21.2983 15.3421 21.4126 15.4913 21.4126 15.6614V23.4309C21.4126 23.7975 21.6892 24.1139 22.0292 24.1363C22.2252 24.1466 22.408 24.0809 22.5454 23.9438C22.6702 23.8189 22.739 23.6526 22.739 23.4747V18.3933C22.739 18.1855 22.9075 18.0171 23.1153 18.0171C23.3231 18.0171 23.4915 18.1853 23.4915 18.3933L23.4913 24.6297C23.4913 24.9954 23.7889 25.2929 24.1545 25.2929C24.3321 25.2929 24.499 25.2241 24.6241 25.0992C24.7489 24.9741 24.8177 24.8073 24.8177 24.6297V18.3933C24.8177 18.1855 24.9859 18.0171 25.194 18.0171C25.4018 18.0171 25.5702 18.1853 25.5702 18.3933L25.57 23.4163V23.4747C25.57 23.8401 25.8675 24.1377 26.2334 24.1377C26.4108 24.1377 26.5772 24.0686 26.703 23.9433C26.8278 23.8187 26.8966 23.6523 26.8966 23.4744V18.3931C26.8966 18.1853 27.0649 18.0168 27.2729 18.0168C27.4807 18.0168 27.6491 18.185 27.6491 18.3931L27.6487 22.2286C27.6487 22.5945 27.9462 22.8921 28.3116 22.8921C28.4895 22.8921 28.6558 22.823 28.7807 22.6984C28.906 22.5731 28.9746 22.4063 28.9746 22.2286L28.9748 14.4543C28.9748 11.8615 27.0557 9.75171 24.6966 9.75171L24.6966 9.75163Z" fill="#25632D"/>
<path d="M28.3117 23.6441V22.3108H33.0224L29.0104 24.7797L28.3117 23.6441ZM27.6487 23.4715H26.3154V21.2436L28.2788 22.2964L27.6487 23.4715ZM27.2343 24.4754L26.2915 23.5325L26.2927 23.5313L27.2343 24.4754ZM25.5617 24.7126L24.2307 24.6348L24.3534 22.5363L26.1994 23.5416L25.5617 24.7126ZM25.1558 25.6305L26.0991 26.5728L26.0986 26.5733L25.1558 25.6305ZM22.7473 24.7124L22.1133 23.5394L23.9542 22.5445L24.0782 24.6333L22.7473 24.7124ZM21.9799 24.8867L21.8944 26.2173L21.8926 26.2172L21.9799 24.8867ZM20.6603 17.064L19.5055 16.3975L21.9936 12.087V17.064H20.6603ZM19.9353 18.32L18.7794 17.6556L18.7806 17.6534L19.9353 18.32ZM17.8095 18.8916L17.1466 20.0484L17.1408 20.0451L17.8095 18.8916ZM17.2149 18.1164L18.5026 17.7707L18.503 17.7722L17.2149 18.1164ZM17.3431 17.1481L16.1892 16.48L16.5744 15.8147H17.3431V17.1481ZM19.8597 12.7886L21.0741 13.3392L21.0479 13.3969L21.0164 13.4519L19.8597 12.7886ZM19.9676 12.5469L18.7494 12.0051L18.7494 12.0051L19.9676 12.5469ZM20.0744 12.2731L21.3312 12.7183L21.3311 12.7186L20.0744 12.2731ZM29.7268 14.4541L28.3935 14.4541V14.4541H29.7268ZM29.727 22.2284L31.0604 22.2284V22.2284H29.727ZM29.3131 23.2298L30.2568 24.1717L30.2559 24.1726L29.3131 23.2298ZM28.3116 23.6442V24.9775H23.6009L27.6128 22.5086L28.3116 23.6442ZM24.6966 9.75163V8.4183H26.4642L25.9786 10.1179L24.6966 9.75163ZM20.7833 12.5246L22.0401 12.9699L22.0391 12.9728L20.7833 12.5246ZM20.6552 12.8526L21.8732 13.3949L21.8729 13.3956L20.6552 12.8526ZM20.4773 13.2086L21.4813 14.0859L20.6091 15.0842L19.6058 14.2177L20.4773 13.2086ZM20.4721 13.2041L19.294 12.5797L20.0774 11.1015L21.3436 12.195L20.4721 13.2041ZM17.9943 17.5245L19.1489 18.1914L19.1484 18.1923L17.9943 17.5245ZM17.9413 17.9215L16.6538 18.2681L16.6527 18.264L17.9413 17.9215ZM18.1849 18.2393L17.5208 19.3955L17.5183 19.3941L18.1849 18.2393ZM19.2833 17.9443L18.1269 17.2806L18.1287 17.2775L19.2833 17.9443ZM20.7108 15.4729L19.5562 14.806L19.557 14.8046L20.7108 15.4729ZM21.1339 15.2981L20.7889 16.586L20.7856 16.5851L21.1339 15.2981ZM22.0292 24.1363L21.9588 25.4677L21.9502 25.4673L21.9416 25.4667L22.0292 24.1363ZM22.5454 23.9438L23.4882 24.8866L23.4874 24.8874L22.5454 23.9438ZM23.4915 18.3933H24.8249V18.3934L23.4915 18.3933ZM23.4913 24.6297H22.158V24.6297L23.4913 24.6297ZM24.6241 25.0992L25.5678 26.0412L25.566 26.043L24.6241 25.0992ZM25.5702 18.3933H26.9036V18.3934L25.5702 18.3933ZM25.57 23.4163H24.2367V23.4162L25.57 23.4163ZM26.703 23.9433L27.6449 24.887L27.644 24.8879L26.703 23.9433ZM27.6491 18.3931H28.9825V18.3932L27.6491 18.3931ZM27.6487 22.2286H26.3153V22.2285L27.6487 22.2286ZM28.7807 22.6984L29.7235 23.6412L29.7226 23.6421L28.7807 22.6984ZM28.9746 22.2286H27.6413V22.2286L28.9746 22.2286ZM28.9748 14.4543H30.3082V14.4543L28.9748 14.4543ZM24.6966 9.75171V11.085H22.9289L23.4146 9.38542L24.6966 9.75171ZM28.3117 23.6441V24.9775C27.8207 24.9775 27.3824 24.8416 27.0186 24.6465L27.6487 23.4715L28.2788 22.2964C28.296 22.3056 28.3069 22.3091 28.3113 22.3103C28.315 22.3113 28.3145 22.3108 28.3117 22.3108V23.6441ZM27.6487 23.4715H28.982V23.4743H27.6487H26.3154V23.4715H27.6487ZM27.6487 23.4743H28.982C28.982 24.2056 28.695 24.9016 28.1758 25.4194L27.2343 24.4754L26.2927 23.5313C26.3022 23.5218 26.307 23.5136 26.3097 23.507C26.3125 23.5003 26.3154 23.49 26.3154 23.4743H27.6487ZM27.2343 24.4754L28.1771 25.4182C27.6597 25.9356 26.9649 26.2231 26.2332 26.2231V24.8898V23.5564C26.2485 23.5564 26.2586 23.5537 26.2654 23.5508C26.2722 23.548 26.281 23.543 26.2915 23.5325L27.2343 24.4754ZM26.2332 24.8898V26.2231C25.7358 26.2231 25.292 26.0839 24.9241 25.8836L25.5617 24.7126L26.1994 23.5416C26.2168 23.5511 26.2278 23.5547 26.2321 23.5559C26.2359 23.5569 26.2356 23.5564 26.2332 23.5564V24.8898ZM25.5617 24.7126L26.8928 24.7904C26.8544 25.4467 26.5882 26.0832 26.0991 26.5728L25.1558 25.6305L24.2125 24.6882C24.2174 24.6832 24.2203 24.6789 24.2227 24.6734C24.2254 24.6674 24.2295 24.6551 24.2307 24.6348L25.5617 24.7126ZM25.1558 25.6305L26.0986 26.5733C25.5811 27.0908 24.8863 27.3783 24.1545 27.3783V26.0449V24.7116C24.17 24.7116 24.1802 24.7088 24.187 24.706C24.1938 24.7031 24.2026 24.6981 24.213 24.6877L25.1558 25.6305ZM24.1545 26.0449V27.3783C22.6825 27.3783 21.5013 26.223 21.4163 24.7914L22.7473 24.7124L24.0782 24.6333C24.0796 24.656 24.0889 24.6759 24.1053 24.6915C24.1133 24.6992 24.1214 24.7041 24.1285 24.707C24.1347 24.7095 24.1426 24.7116 24.1545 24.7116V26.0449ZM22.7473 24.7124L23.3812 25.8853C22.9505 26.1181 22.4399 26.2523 21.8944 26.2173L21.9799 24.8867L22.0654 23.5561C22.0654 23.5561 22.0682 23.5564 22.0753 23.5548C22.0828 23.553 22.0958 23.5488 22.1133 23.5394L22.7473 24.7124ZM21.9799 24.8867L21.8926 26.2172C20.4122 26.1201 19.327 24.8611 19.327 23.4307H20.6603H21.9936C21.9936 23.4758 22.01 23.5105 22.0305 23.5331C22.0505 23.5552 22.0641 23.556 22.0671 23.5562L21.9799 24.8867ZM20.6603 23.4307H19.327V17.064H20.6603H21.9936V23.4307H20.6603ZM20.6603 17.064L21.8151 17.7306L21.0901 18.9866L19.9353 18.32L18.7806 17.6534L19.5055 16.3975L20.6603 17.064ZM19.9353 18.32L21.0913 18.9844C20.5761 19.8808 19.6171 20.432 18.5858 20.432V19.0986V17.7653C18.6676 17.7653 18.7423 17.72 18.7794 17.6556L19.9353 18.32ZM18.5858 19.0986V20.432C18.0816 20.432 17.5853 20.2998 17.1467 20.0484L17.8095 18.8916L18.4724 17.7347C18.5083 17.7552 18.5477 17.7653 18.5858 17.7653V19.0986ZM17.8095 18.8916L17.1408 20.0451C16.5422 19.698 16.1065 19.1332 15.9267 18.4606L17.2149 18.1164L18.503 17.7722C18.5018 17.7677 18.4985 17.7596 18.4921 17.7513C18.4857 17.743 18.4798 17.7389 18.4783 17.738L17.8095 18.8916ZM17.2149 18.1164L15.9271 18.4621C15.7467 17.7899 15.8412 17.081 16.1892 16.48L17.3431 17.1481L18.4969 17.8162C18.4988 17.8129 18.5022 17.8053 18.5036 17.7945C18.505 17.7837 18.5038 17.7751 18.5026 17.7707L17.2149 18.1164ZM17.3431 17.1481V15.8147C16.689 15.9862 16.1995 16.4626 16.1958 16.4687C16.1946 16.4708 16.1928 16.4738 16.1922 16.4748C16.1919 16.4754 16.1913 16.4764 16.1911 16.4767C16.191 16.4769 16.1907 16.4773 16.1907 16.4774C16.1905 16.4777 16.1905 16.4776 16.191 16.4768C16.192 16.4752 16.1935 16.4726 16.1957 16.4688C16.2001 16.4612 16.2066 16.4498 16.2153 16.4348C16.2327 16.4047 16.2582 16.3606 16.2908 16.3042C16.3559 16.1914 16.4491 16.0301 16.5614 15.8356C16.786 15.4466 17.087 14.9254 17.3925 14.3963C18.0046 13.3362 18.6321 12.2492 18.7031 12.1253L19.8597 12.7886L21.0164 13.4519C20.9427 13.5803 20.312 14.673 19.7019 15.7296C19.3964 16.2588 19.0953 16.7802 18.8707 17.1692C18.7583 17.3637 18.6651 17.5252 18.5999 17.638C18.5673 17.6944 18.5417 17.7388 18.5242 17.769C18.5155 17.7841 18.5087 17.7958 18.5041 17.8038C18.5018 17.8078 18.4999 17.811 18.4985 17.8134C18.4979 17.8145 18.4971 17.8159 18.4963 17.8172C18.496 17.8177 18.4952 17.8192 18.4942 17.821C18.4935 17.8221 18.4916 17.8253 18.4904 17.8274C18.4867 17.8336 17.9971 18.31 17.3431 18.4814V17.1481ZM19.8597 12.7886L18.6454 12.238C18.6601 12.2056 18.7066 12.1013 18.7494 12.0051L19.9676 12.5469L21.1859 13.0887C21.1453 13.18 21.0938 13.2957 21.0741 13.3392L19.8597 12.7886ZM19.9676 12.5469L18.7494 12.0051C18.7679 11.9634 18.7884 11.9102 18.8177 11.8276L20.0744 12.2731L21.3311 12.7186C21.2949 12.8208 21.247 12.9513 21.1859 13.0887L19.9676 12.5469ZM20.0744 12.2731L18.8176 11.8279C19.7206 9.27845 21.9936 7.66616 24.6966 7.66616V8.99949V10.3328C23.1277 10.3328 21.8586 11.2292 21.3312 12.7183L20.0744 12.2731ZM24.6966 8.99949V7.66616C28.3063 7.66616 31.0601 10.8137 31.0601 14.4541H29.7268H28.3935C28.3935 12.079 26.6343 10.3328 24.6966 10.3328V8.99949ZM29.7268 14.4541L31.0601 14.454L31.0604 22.2284L29.727 22.2284L28.3937 22.2285L28.3935 14.4541L29.7268 14.4541ZM29.727 22.2284H31.0604C31.0604 22.9596 30.7735 23.654 30.2568 24.1717L29.3131 23.2298L28.3694 22.2878C28.38 22.2773 28.3851 22.2683 28.388 22.2613C28.3909 22.2543 28.3937 22.244 28.3937 22.2284H29.727ZM29.3131 23.2298L30.2559 24.1726C29.7383 24.6901 29.0435 24.9775 28.3116 24.9775V23.6442V22.3108C28.3273 22.3108 28.3375 22.308 28.3443 22.3052C28.3511 22.3024 28.3599 22.2973 28.3703 22.2869L29.3131 23.2298ZM28.3116 23.6442L27.6128 22.5086L27.6129 22.5086L28.3117 23.6441L29.0104 24.7797L29.0104 24.7797L28.3116 23.6442ZM24.6966 9.75163V11.085C23.4289 11.085 22.4676 11.7631 22.0401 12.9699L20.7833 12.5246L19.5265 12.0794C20.3293 9.81347 22.2937 8.4183 24.6966 8.4183V9.75163ZM20.7833 12.5246L22.0391 12.9728C21.997 13.0907 21.9423 13.2397 21.8732 13.3949L20.6552 12.8526L19.4371 12.3103C19.4636 12.2507 19.4909 12.1791 19.5275 12.0765L20.7833 12.5246ZM20.6552 12.8526L21.8729 13.3956C21.8119 13.5325 21.7607 13.6482 21.7216 13.7265C21.6973 13.7751 21.6579 13.85 21.6009 13.933C21.5431 14.0171 21.486 14.0806 21.4813 14.0859L20.4773 13.2086L19.4732 12.3313C19.4763 12.3277 19.4753 12.3289 19.4737 12.3307C19.4717 12.3331 19.4665 12.3391 19.4597 12.3474C19.4527 12.356 19.4438 12.3671 19.4338 12.3803C19.4237 12.3936 19.4135 12.4077 19.4032 12.4227C19.3823 12.453 19.3662 12.4797 19.3548 12.4998C19.3441 12.5186 19.3376 12.5316 19.3361 12.5345C19.3346 12.5376 19.3356 12.5358 19.3401 12.5261C19.3445 12.5167 19.3507 12.5031 19.3596 12.4834C19.3684 12.4639 19.379 12.4403 19.3921 12.4112C19.4051 12.3821 19.42 12.3487 19.4374 12.3096L20.6552 12.8526ZM20.4773 13.2086L19.6058 14.2177L19.6006 14.2132L20.4721 13.2041L21.3436 12.195L21.3488 12.1995L20.4773 13.2086ZM20.4721 13.2041L21.6502 13.8285C21.4415 14.2222 20.8458 15.2533 19.1489 18.1914L17.9943 17.5245L16.8397 16.8577C18.5604 13.8784 19.1153 12.9168 19.294 12.5797L20.4721 13.2041ZM17.9943 17.5245L19.1484 18.1923C19.255 18.0079 19.2848 17.7855 19.2299 17.579L17.9413 17.9215L16.6527 18.264C16.5262 17.788 16.5932 17.2837 16.8403 16.8567L17.9943 17.5245ZM17.9413 17.9215L19.2288 17.5749C19.1739 17.3711 19.0391 17.1929 18.8515 17.0846L18.1849 18.2393L17.5183 19.3941C17.09 19.1468 16.7812 18.7414 16.6538 18.2681L17.9413 17.9215ZM18.1849 18.2393L18.849 17.0831C18.6972 16.996 18.5496 16.9965 18.4477 17.024C18.3462 17.0513 18.216 17.1254 18.1269 17.2806L19.2833 17.9443L20.4397 18.608C19.8586 19.6205 18.5306 19.9755 17.5208 19.3955L18.1849 18.2393ZM19.2833 17.9443L18.1287 17.2775L19.5562 14.806L20.7108 15.4729L21.8653 16.1398L20.4379 18.6112L19.2833 17.9443ZM20.7108 15.4729L19.557 14.8046C19.9421 14.1397 20.7282 13.807 21.4822 14.0111L21.1339 15.2981L20.7856 16.5851C21.2088 16.6997 21.65 16.5116 21.8645 16.1412L20.7108 15.4729ZM21.1339 15.2981L21.4789 14.0102C22.227 14.2106 22.7459 14.8884 22.7459 15.6614H21.4126H20.0793C20.0793 16.0941 20.3697 16.4737 20.7889 16.586L21.1339 15.2981ZM21.4126 15.6614H22.7459V23.4309H21.4126H20.0793V15.6614H21.4126ZM21.4126 23.4309H22.7459C22.7459 23.279 22.6897 23.1408 22.5973 23.0351C22.505 22.9296 22.3422 22.8207 22.1167 22.8058L22.0292 24.1363L21.9416 25.4667C20.8192 25.3929 20.0793 24.4151 20.0793 23.4309H21.4126ZM22.0292 24.1363L22.0996 22.8048C21.9421 22.7965 21.7496 22.8542 21.6034 23.0002L22.5454 23.9438L23.4874 24.8874C23.0664 25.3076 22.5083 25.4968 21.9588 25.4677L22.0292 24.1363ZM22.5454 23.9438L21.6026 23.001C21.476 23.1275 21.4057 23.3009 21.4057 23.4747H22.739H24.0724C24.0724 24.0043 23.8645 24.5103 23.4882 24.8866L22.5454 23.9438ZM22.739 23.4747H21.4057V18.3933H22.739H24.0724V23.4747H22.739ZM22.739 18.3933H21.4057C21.4057 17.4492 22.1711 16.6838 23.1153 16.6838V18.0171V19.3504C23.6439 19.3504 24.0724 18.9219 24.0724 18.3933H22.739ZM23.1153 18.0171V16.6838C24.0589 16.6838 24.8249 17.4484 24.8249 18.3933H23.4915H22.1582C22.1582 18.9222 22.5872 19.3504 23.1153 19.3504V18.0171ZM23.4915 18.3933L24.8249 18.3934L24.8246 24.6298L23.4913 24.6297L22.158 24.6297L22.1582 18.3933L23.4915 18.3933ZM23.4913 24.6297H24.8246C24.8246 24.259 24.5252 23.9596 24.1545 23.9596V25.2929V26.6262C23.0525 26.6262 22.158 25.7317 22.158 24.6297H23.4913ZM24.1545 25.2929V23.9596C23.981 23.9596 23.8084 24.0295 23.6822 24.1555L24.6241 25.0992L25.566 26.043C25.1895 26.4187 24.6833 26.6262 24.1545 26.6262V25.2929ZM24.6241 25.0992L23.6804 24.1573C23.5543 24.2836 23.4844 24.4562 23.4844 24.6297H24.8177H26.1511C26.1511 25.1585 25.9436 25.6647 25.5678 26.0412L24.6241 25.0992ZM24.8177 24.6297H23.4844V18.3933H24.8177H26.1511V24.6297H24.8177ZM24.8177 18.3933H23.4844C23.4844 17.4497 24.249 16.6837 25.194 16.6837V18.0171V19.3504C25.7229 19.3504 26.1511 18.9214 26.1511 18.3933H24.8177ZM25.194 18.0171V16.6837C26.1376 16.6837 26.9036 17.4484 26.9036 18.3933H25.5702H24.2369C24.2369 18.9222 24.6659 19.3504 25.194 19.3504V18.0171ZM25.5702 18.3933L26.9036 18.3934L26.9033 23.4163L25.57 23.4163L24.2367 23.4162L24.2369 18.3933L25.5702 18.3933ZM25.57 23.4163H26.9033V23.4747H25.57H24.2367V23.4163H25.57ZM25.57 23.4747H26.9033C26.9033 23.1031 26.6033 22.8043 26.2334 22.8043V24.1377V25.471C25.1318 25.471 24.2367 24.5771 24.2367 23.4747H25.57ZM26.2334 24.1377V22.8043C26.0563 22.8043 25.8847 22.8764 25.7619 22.9987L26.703 23.9433L27.644 24.8879C27.2696 25.2609 26.7654 25.471 26.2334 25.471V24.1377ZM26.703 23.9433L25.7611 22.9996C25.6335 23.1269 25.5633 23.3008 25.5633 23.4744H26.8966H28.23C28.23 24.0038 28.0222 24.5104 27.6449 24.887L26.703 23.9433ZM26.8966 23.4744H25.5633V18.3931H26.8966H28.23V23.4744H26.8966ZM26.8966 18.3931H25.5633C25.5633 17.4494 26.3279 16.6835 27.2729 16.6835V18.0168V19.3502C27.8018 19.3502 28.23 18.9211 28.23 18.3931H26.8966ZM27.2729 18.0168V16.6835C28.2165 16.6835 28.9825 17.4481 28.9825 18.3931H27.6491H26.3158C26.3158 18.922 26.7448 19.3502 27.2729 19.3502V18.0168ZM27.6491 18.3931L28.9825 18.3932L28.982 22.2288L27.6487 22.2286L26.3153 22.2285L26.3158 18.3929L27.6491 18.3931ZM27.6487 22.2286H28.982C28.982 21.8588 28.6832 21.5587 28.3116 21.5587V22.8921V24.2254C27.2092 24.2254 26.3153 23.3302 26.3153 22.2286H27.6487ZM28.3116 22.8921V21.5587C28.1367 21.5587 27.9642 21.6295 27.8388 21.7547L28.7807 22.6984L29.7226 23.6421C29.3475 24.0165 28.8423 24.2254 28.3116 24.2254V22.8921ZM28.7807 22.6984L27.8379 21.7556C27.7109 21.8826 27.6413 22.0558 27.6413 22.2286H28.9746H30.3079C30.3079 22.7567 30.1011 23.2636 29.7235 23.6412L28.7807 22.6984ZM28.9746 22.2286L27.6413 22.2286L27.6415 14.4542L28.9748 14.4543L30.3082 14.4543L30.3079 22.2287L28.9746 22.2286ZM28.9748 14.4543H27.6415C27.6415 12.4764 26.2034 11.085 24.6966 11.085V9.75171V8.41838C27.908 8.41838 30.3082 11.2467 30.3082 14.4543H28.9748ZM24.6966 9.75171L23.4146 9.38542L23.4146 9.38534L24.6966 9.75163L25.9786 10.1179L25.9786 10.118L24.6966 9.75171Z" fill="#25632D" mask="url(#path-1-inside-1_3947_1072)"/>
<path d="M11.9629 26.2139L11.8877 26.1738C11.8702 26.2054 11.8202 26.2939 11.7471 26.4258C11.7731 26.4388 11.7989 26.451 11.8252 26.4609C11.8701 26.3801 11.9163 26.2979 11.9629 26.2139Z" fill="#25632D" stroke="#25632D" stroke-width="1.33333"/>
<path d="M27.8252 28.0762L27.8271 28.0771C27.8295 28.0788 27.8315 28.0813 27.834 28.083C27.8309 28.0809 27.8281 28.0783 27.8252 28.0762Z" fill="#25632D" stroke="#25632D" stroke-width="1.33333"/>
</svg>
