<svg width="83" height="116" viewBox="0 0 83 116" fill="none" xmlns="http://www.w3.org/2000/svg">
<path d="M50.0373 30.2652C48.6633 30.2652 47.5077 29.7966 46.5706 28.8595C45.6335 27.9224 45.1649 26.7668 45.1649 25.3928C45.1649 24.0188 45.6335 22.8632 46.5706 21.9261C47.5077 20.989 48.6633 20.5204 50.0373 20.5204C51.4113 20.5204 52.5668 20.989 53.504 21.9261C54.4411 22.8632 54.9096 24.0188 54.9096 25.3928C54.9096 26.7668 54.4411 27.9224 53.504 28.8595C52.5668 29.7966 51.4113 30.2652 50.0373 30.2652ZM34.9524 38.0439C33.8692 38.0439 32.9426 37.6581 32.1728 36.8867C31.4013 36.1152 31.0156 35.1887 31.0156 34.107V16.6786C31.0156 15.5969 31.4013 14.6712 32.1728 13.9013C32.9442 13.1315 33.87 12.7458 34.95 12.7441H65.1221C66.2054 12.7441 67.132 13.1291 67.9018 13.8989C68.6716 14.6687 69.0574 15.5953 69.059 16.6786V34.107C69.059 35.1887 68.6733 36.1144 67.9018 36.8843C67.132 37.6573 66.2062 38.0439 65.1245 38.0439H34.9524ZM37.3886 35.6077H62.6859C62.6859 34.5163 63.0717 33.5873 63.8431 32.8207C64.6129 32.0541 65.5387 31.6708 66.6204 31.6708V19.1148C65.5322 19.1148 64.6048 18.7298 63.8382 17.96C63.07 17.1885 62.6859 16.262 62.6859 15.1803H37.3886C37.3886 16.2701 37.0029 17.1983 36.2314 17.9649C35.4616 18.7315 34.5359 19.1148 33.4542 19.1148V31.6708C34.5424 31.6708 35.4705 32.0566 36.2387 32.828C37.0053 33.5978 37.3886 34.5236 37.3886 35.6053M60.6249 45.35H27.6439C26.5606 45.35 25.6341 44.9651 24.8642 44.1952C24.0928 43.4238 23.707 42.4972 23.707 41.4156V21.1758C23.707 20.8315 23.824 20.5424 24.0578 20.3085C24.2917 20.0746 24.5816 19.9577 24.9276 19.9577C25.2735 19.9577 25.5626 20.0746 25.7948 20.3085C26.0271 20.5424 26.1432 20.8315 26.1432 21.1758V41.4156C26.1432 41.7891 26.2991 42.1326 26.611 42.4461C26.9244 42.7595 27.2687 42.9162 27.6439 42.9162H60.6249C60.9709 42.9162 61.26 43.0324 61.4922 43.2646C61.7261 43.4985 61.843 43.7884 61.843 44.1343C61.843 44.4803 61.7261 44.7694 61.4922 45.0016C61.2583 45.2339 60.9692 45.3484 60.6249 45.35ZM34.9524 35.6077H33.4518V15.1779H34.9524C34.5464 15.1779 34.1948 15.3265 33.8976 15.6237C33.6004 15.9209 33.4518 16.2717 33.4518 16.6761V34.107C33.4518 34.513 33.6004 34.8647 33.8976 35.1619C34.1948 35.4591 34.5464 35.6077 34.9524 35.6077Z" fill="#25632D"/>
<path d="M19.0471 78.2555C18.398 78.4878 17.3901 78.9524 16.8264 79.3009C12.5728 81.9026 8.19966 84.2256 2.86988 86.7345C1.14454 87.5243 0 88.1747 0 88.3606C0 88.7323 7.48219 115.005 7.65302 115.238C7.72135 115.331 8.28507 115.215 8.88296 114.959C10.4887 114.285 14.059 113.17 15.9039 112.775C21.0629 111.66 27.2639 111.684 34.6777 112.845C43.7315 114.239 46.3452 114.285 50.3083 112.984C53.4515 111.986 54.6644 111.265 60.3871 107.061C70.4487 99.6736 79.5367 92.1935 81.3816 89.7544C83.6878 86.7113 83.4999 81.8562 81.0058 80.1371C79.4513 79.0686 77.8114 79.3473 75.7102 80.9967C74.5827 81.8794 66.9981 87.0132 65.2556 88.0818C63.1715 89.3595 62.3857 89.8008 60.4725 90.9159C59.2938 91.5896 57.9784 92.3097 57.5343 92.542C56.8339 92.8904 56.7314 93.0298 56.6289 93.7964C56.4752 94.9811 55.5527 97.2112 54.9548 97.9081C54.1348 98.8606 52.5462 99.8362 51.0258 100.324C49.1467 100.951 45.286 101.184 42.6211 100.812C37.8893 100.138 32.7474 98.2101 32.3887 96.9557C32.1495 96.0962 32.2862 95.2367 32.7474 94.7488C33.277 94.1913 33.3282 94.1913 35.3439 95.2134C37.0522 96.073 40.2296 96.9557 42.7749 97.2809C47.763 97.9546 51.8458 97.0719 53.2295 95.0508C54.374 93.355 54.7498 90.7997 54.0665 89.1736C53.4344 87.6869 52.512 87.2688 49.2321 87.0597C43.3045 86.6648 39.273 85.4104 32.5936 81.8329C28.528 79.6493 26.1022 78.5343 24.4623 78.1161C22.737 77.6748 20.4991 77.7212 19.0471 78.2555Z" fill="#25632D"/>
</svg>
