<svg width="89" height="93" viewBox="0 0 89 93" fill="none" xmlns="http://www.w3.org/2000/svg">
<rect x="-0.00195312" y="0.230469" width="88.02" height="92.4834" rx="10" fill="#25632D"/>
<path d="M23.7715 22.3977C22.7697 22.5703 21.813 23.3149 21.2986 24.3047L21.0459 24.8042L21.0549 26.6204C21.0639 28.709 21.2625 30.271 21.7679 32.2506C23.3744 38.5529 26.9664 42.1671 33.1757 43.7472C35.2153 44.2648 36.9572 44.4918 38.9156 44.5009C40.4048 44.51 40.5763 44.4918 40.9643 44.3102L41.3885 44.1104L42.0564 44.8551C43.2387 46.1627 43.9246 47.4068 44.3578 49.0051C44.5834 49.8406 44.5924 49.9586 44.6285 53.146L44.6646 56.4243L43.4192 56.4788C41.2351 56.5877 37.9139 57.1871 35.8922 57.8318C30.7299 59.4937 26.7137 62.2634 24.3671 65.805C23.4556 67.1671 23.3293 67.6666 23.7625 68.1115L24.0061 68.3477H45.522H67.047L67.3087 68.0843C67.769 67.6121 67.6426 67.158 66.5776 65.5779C65.0614 63.3168 62.3178 61.0374 59.2673 59.4937C55.9551 57.8228 51.4876 56.6604 47.6971 56.4788L46.4516 56.4243V53.4548C46.4516 50.2129 46.5238 49.4864 46.957 48.2605C47.4444 46.9165 47.9949 46.0084 49.0779 44.8097L49.7097 44.1104L50.1339 44.3102C50.522 44.4918 50.6844 44.51 52.2277 44.5009C54.0688 44.4918 55.3414 44.3465 57.2457 43.9197C64.0326 42.4032 67.9675 38.4439 69.4657 31.624C69.9079 29.6081 70.0343 28.4911 70.0433 26.6204C70.0523 24.9041 70.0523 24.895 69.7906 24.332C69.4837 23.6691 68.7708 22.9335 68.1661 22.6702C67.426 22.3523 66.8123 22.2978 65.2329 22.3977C62.4171 22.5794 60.2871 22.9971 58.1031 23.8144C55.7024 24.7225 53.4371 26.2753 52.0562 27.9644C49.6194 30.9702 48.2566 35.1202 48.1032 39.9877C48.0581 41.5405 48.0671 41.6858 48.2566 42.2488L48.4552 42.8482L48.0039 43.3204C47.2549 44.1104 46.6592 44.8914 46.1357 45.7723C45.865 46.2445 45.6394 46.6713 45.6394 46.7258C45.6394 46.9619 45.4769 46.7893 45.2693 46.3444C45.0257 45.8086 44.1502 44.4646 43.7802 44.056C43.6448 43.9016 43.338 43.5747 43.0853 43.3204L42.643 42.8482L42.8325 42.2942C43.0672 41.6132 43.0853 40.2328 42.8867 38.3349C42.4264 33.9579 41.181 30.607 39.033 27.9644C37.1738 25.6669 33.997 23.8598 30.3418 23.0243C28.275 22.5521 24.8003 22.2161 23.7715 22.3977ZM26.4519 24.2139C28.5187 24.3865 30.5133 24.8224 32.3815 25.5125C35.5944 26.6931 37.8958 28.7726 39.3308 31.7966C40.4409 34.1304 41.0004 36.5369 41.208 39.8242C41.2622 40.5961 41.2712 41.2681 41.2441 41.3135C41.2171 41.3589 38.8525 39.0523 35.9915 36.1736C32.4537 32.623 30.7118 30.9339 30.5494 30.8976C30.1613 30.8068 29.6829 31.0519 29.5295 31.4152C29.4573 31.5877 29.4302 31.8238 29.4573 31.9419C29.4844 32.069 31.6594 34.3302 34.7551 37.445L39.9987 42.7392H38.9608C36.7135 42.7392 33.7894 42.2034 31.6504 41.4043C28.0855 40.0694 25.5585 37.5721 24.2137 34.0487C23.3924 31.9237 23.0044 29.9985 22.8058 27.2198C22.6975 25.6306 22.7877 25.0766 23.23 24.6498C23.7895 24.114 24.3401 24.0414 26.4519 24.2139ZM67.3448 24.2957C68.2292 24.6952 68.4278 25.3127 68.2924 27.2833C68.0758 30.4344 67.4441 32.9953 66.343 35.2201C64.6372 38.6891 62.1102 40.6869 57.8594 41.9128C56.28 42.376 53.6988 42.7392 52.0111 42.7392H51.0996L56.3432 37.445C59.4388 34.3302 61.6138 32.069 61.6409 31.9419C61.668 31.8238 61.6409 31.5877 61.5687 31.4152C61.4153 31.0519 60.9369 30.8068 60.5489 30.8976C60.3864 30.9339 58.6446 32.623 55.0977 36.1827C51.1357 40.1602 49.8721 41.3771 49.827 41.259C49.7548 41.0683 49.9353 38.5165 50.1158 37.336C50.6212 33.8489 51.993 30.6524 53.8251 28.7C56.0905 26.2753 59.5922 24.7679 64.1409 24.2593C65.7383 24.0777 66.9116 24.0959 67.3448 24.2957ZM49.5021 61.0102C49.809 61.3099 49.7729 61.8184 49.4209 62.1181C49.2675 62.2452 49.0509 62.3542 48.9335 62.3542C48.8162 62.3542 48.5996 62.2452 48.4462 62.1181C47.9769 61.7185 48.1122 61.0102 48.7079 60.7832C48.9155 60.7014 49.2765 60.8013 49.5021 61.0102ZM35.0168 62.6266C35.4951 63.008 35.3778 63.7527 34.8002 63.9888C34.4663 64.1341 34.1775 64.016 33.8796 63.6074C33.663 63.3168 33.7262 62.9899 34.0421 62.6629C34.3128 62.3905 34.7009 62.3814 35.0168 62.6266ZM42.7333 63.5529C43.0221 63.8344 43.004 64.3793 42.6972 64.6698C42.1737 65.1602 41.3976 64.8151 41.3976 64.0977C41.3976 63.3713 42.1827 63.0443 42.7333 63.5529ZM57.0471 64.3702C57.4081 64.688 57.4352 65.0785 57.1464 65.4236C56.8034 65.8322 56.3161 65.8322 55.9822 65.4327C55.8558 65.2783 55.7475 65.0603 55.7475 64.9423C55.7475 64.8242 55.8558 64.6063 55.9822 64.4519C56.271 64.0977 56.7042 64.0705 57.0471 64.3702Z" fill="white"/>
</svg>
