<svg width="89" height="93" viewBox="0 0 89 93" fill="none" xmlns="http://www.w3.org/2000/svg">
<rect x="0.523438" y="0.230469" width="88.02" height="92.4834" rx="10" fill="#25632D"/>
<path d="M47.5769 22.4608C45.3734 22.9089 43.5767 24.5254 42.9411 26.6219C42.7885 27.1261 42.7461 27.4622 42.7461 28.2224C42.7546 29.3667 42.8902 29.9348 43.3987 30.8871L43.7462 31.5593L39.4748 35.5924C37.1272 37.809 35.1779 39.6255 35.144 39.6255C35.0593 39.6255 33.5761 38.0571 32.8303 37.1848C29.9064 33.7439 27.9656 30.1909 27.9487 28.2224C27.9402 27.5902 28.0419 27.2781 28.3555 26.966C28.9572 26.3659 30.5759 26.5339 32.7456 27.4222C34.127 27.9903 35.2711 28.6305 37.7289 30.1989C38.5764 30.7431 39.6527 30.2549 39.6527 29.3427C39.6527 28.8145 39.4409 28.5425 38.5595 27.9583C33.9829 24.8695 29.8047 23.6611 27.4741 24.7574C26.313 25.3016 24.3129 27.6862 23.1603 29.8948C21.8551 32.4075 21.2788 35.0002 21.372 37.905C21.5415 43.2905 24.279 48.0678 29.0081 51.2607C29.381 51.5088 29.7284 51.7408 29.7962 51.7728C29.881 51.8209 29.6945 52.5811 28.9318 55.3258C28.3978 57.2383 27.9402 58.9028 27.9063 59.0228C27.8554 59.2229 27.83 59.2309 27.2876 59.2309C25.101 59.2309 23.1264 60.7833 22.6602 62.8719C22.567 63.296 22.5331 64.0482 22.5331 65.9767C22.5331 68.3214 22.5416 68.5454 22.6941 68.8175C23.0331 69.4417 21.9822 69.3937 34.8643 69.3937H46.3735L46.6616 69.2176C47.1786 68.9215 47.1955 68.8095 47.1955 65.9367C47.1955 64.0002 47.1616 63.216 47.0684 62.8079C46.7887 61.5435 45.7209 60.2552 44.4835 59.695C43.7038 59.3429 43.1699 59.2309 42.2376 59.2309H41.5173V56.7902C41.5173 55.4458 41.5088 54.3255 41.5003 54.2855C41.4834 54.2535 41.8393 54.1735 42.28 54.0935C45.4497 53.5733 48.2295 52.389 50.6618 50.5085C52.6535 48.9721 53.0772 48.2839 53.0688 46.5474C53.0603 44.4188 51.9755 41.8741 49.7126 38.6652C48.8397 37.4329 48.6787 37.2489 48.2634 37.1048C47.3311 36.7687 46.3819 37.609 46.7125 38.4812C46.7803 38.6492 47.1277 39.1934 47.5006 39.6815C49.3228 42.1302 50.5347 44.7069 50.6449 46.3634C50.6873 46.9715 50.6703 47.0996 50.5008 47.4276C50.1449 48.1238 49.2889 48.2759 47.7803 47.9158C44.9497 47.2356 40.8816 44.8109 37.339 41.6981L36.856 41.266L41.1698 37.2248L45.4751 33.1837L46.187 33.5278C47.0684 33.944 47.8227 34.104 48.9838 34.104C51.8399 34.104 54.1366 32.4875 55.0096 29.8628C55.2892 28.9986 55.2892 27.4542 55.0011 26.5819C54.3231 24.4934 52.7043 23.021 50.5262 22.4928C49.7635 22.3168 48.3736 22.2928 47.5769 22.4608ZM49.7465 24.6614C51.6789 25.0055 53.0518 26.854 52.7806 28.7425C52.6111 29.8708 51.7212 31.0071 50.6279 31.4953C48.5346 32.4235 46.0599 31.4153 45.3226 29.3267C45.17 28.8946 45.1446 28.6705 45.1785 28.0383C45.2039 27.3581 45.2463 27.1901 45.5005 26.702C46.2802 25.1655 47.9837 24.3493 49.7465 24.6614ZM26.1943 31.1112C27.3639 34.3521 30.3047 38.3372 34.3473 42.1462C36.7712 44.4348 38.9069 46.0833 41.3562 47.5637C43.2716 48.716 44.4581 49.2682 46.204 49.8283L47.0345 50.0924L46.6277 50.3084C45.67 50.8126 44.3649 51.2767 43.0597 51.5808C41.5512 51.9329 41.0426 51.9889 39.1866 51.9889C37.5763 51.9809 37.3051 51.9649 36.3051 51.7648C33.0337 51.1087 30.559 49.8363 28.2792 47.6517C26.8893 46.3233 26.1435 45.3391 25.3723 43.8267C24.1264 41.386 23.6094 38.9533 23.8044 36.3766C23.9654 34.304 24.4146 32.7196 25.3977 30.8391C25.6096 30.439 25.796 30.1189 25.813 30.1349C25.8299 30.1509 25.9994 30.591 26.1943 31.1112ZM34.1694 53.6294C35.483 54.0055 37.7628 54.3495 38.873 54.3495H39.0595V56.7902V59.2309H34.7033H30.3386L30.4573 58.8468C30.5166 58.6387 30.898 57.2784 31.3048 55.83C31.7031 54.3736 32.0506 53.1332 32.076 53.0612C32.1099 52.9412 32.1862 52.9572 32.7286 53.1652C33.0676 53.2933 33.7117 53.5013 34.1694 53.6294ZM43.4411 61.7436C43.9242 61.9916 44.3225 62.4158 44.5683 62.9359C44.7208 63.24 44.7378 63.4721 44.7378 65.2085V67.1531H34.8643H24.9909V65.2805C24.9909 63.232 25.0248 63.0239 25.4994 62.4078C25.635 62.2237 25.8892 61.9836 26.0503 61.8796C26.7028 61.4635 26.3893 61.4795 34.9915 61.4955L43.0004 61.5115L43.4411 61.7436Z" fill="white"/>
</svg>
