<svg width="89" height="93" viewBox="0 0 89 93" fill="none" xmlns="http://www.w3.org/2000/svg">
<rect x="0.523438" y="0.230469" width="88.02" height="92.4834" rx="10" fill="#25632D"/>
<path d="M54.0513 26.1284C53.6547 26.2051 52.9695 26.368 52.5187 26.5118C51.6533 26.7802 49.751 27.7005 49.6338 27.9018C49.5797 27.9977 49.6068 28.0073 49.733 27.9594C49.8232 27.921 50.328 27.7772 50.8509 27.6334C51.6713 27.4225 51.9958 27.3842 53.285 27.3842C54.8447 27.3746 55.5839 27.4896 56.81 27.9114C58.2705 28.4195 59.9384 29.4548 61.0112 30.5285C63.265 32.7621 64.6444 36.0023 64.6444 39.0412C64.6444 39.7218 64.6263 39.7889 64.41 39.9711C64.2296 40.1244 64.0403 40.1724 63.6166 40.1724H63.0667L64.8427 42.0609L66.6277 43.959L68.3406 42.1376C69.2782 41.1406 70.0535 40.2874 70.0535 40.2491C70.0535 40.2011 69.8372 40.1724 69.5667 40.1724C69.1791 40.1724 69.0258 40.1244 68.8455 39.9519C68.6381 39.7602 68.6111 39.6451 68.53 38.4948C68.3857 36.5775 68.0612 35.1491 67.4121 33.6345C65.6901 29.637 61.9758 26.6748 57.946 26.09C57.0084 25.9558 54.9529 25.975 54.0513 26.1284Z" fill="white"/>
<path d="M28.8531 27.9595C26.4821 28.3909 24.7331 29.2441 22.912 30.845C21.6949 31.9187 20.3246 33.6921 19.4772 35.2931C18.9182 36.3476 18.8641 36.731 19.2428 37.0665C19.5673 37.3733 19.8919 37.3541 20.4147 37.009C21.8031 36.0695 23.0382 35.6382 24.3454 35.6286C25.4543 35.619 26.1575 35.8107 28.0868 36.6351C30.1874 37.5363 30.8906 37.7184 32.0535 37.6609C33.6042 37.5746 34.7762 36.9898 36.4079 35.4752C36.8136 35.0917 37.1652 34.7946 37.1832 34.8137C37.3004 34.9384 38.1208 36.5009 38.5175 37.3254C39.7887 40.0287 40.6091 43.1826 40.9246 46.6337C41.0779 48.2346 41.0418 48.273 40.6271 47.0268C39.7166 44.3234 38.6257 42.224 37.5078 41.0257C36.0203 39.4248 34.2983 38.7633 32.306 39.0221C29.6645 39.3577 27.2574 41.2078 25.7158 44.0742C25.2109 45.0136 25.1839 45.1287 25.3822 45.5313C25.6256 46.0489 26.0223 46.0489 26.8968 45.5505C27.8794 44.9849 28.4204 44.8219 29.3039 44.8411C30.1062 44.8506 30.0611 44.8315 32.5944 45.8572C33.2345 46.116 33.4239 46.1544 34.3164 46.1544C35.3081 46.164 35.3171 46.164 36.0834 45.7614C36.5071 45.5313 37.057 45.1574 37.3095 44.9178C37.5529 44.6781 37.7963 44.4864 37.8324 44.4864C37.9496 44.4864 38.5536 45.8956 39.0945 47.439C39.7887 49.4138 40.3927 51.8583 40.6271 53.6413C40.6542 53.9002 40.7263 54.2069 40.7804 54.3124C40.8254 54.4178 40.8615 54.7917 40.8525 55.1464C40.8345 55.7216 40.8525 55.8174 41.0598 56.0379C41.3664 56.3639 41.772 56.3543 42.0966 56.0092C42.313 55.7887 42.358 55.6353 42.4031 55.0314C42.5654 53.1428 42.6465 50.8517 42.6285 48.8002C42.6105 46.5091 42.6556 45.8189 43.0252 43.336L43.2145 42.0418L43.7825 41.3229C44.089 40.9298 44.5127 40.4313 44.7201 40.2204L45.1077 39.837L44.8733 40.2204C44.6209 40.6422 44.116 41.9172 44.0349 42.3582C43.9898 42.5787 44.0349 42.7033 44.2422 42.943C44.4406 43.1826 44.657 43.2881 45.3061 43.4702C48.1549 44.2755 50.4628 44.2946 52.0135 43.5277C52.906 43.0772 53.4469 42.5979 54.5107 41.2941C55.5925 39.9808 55.9892 39.6069 56.7285 39.2043C57.3956 38.8496 58.1529 38.6579 59.2798 38.5812C60.3436 38.5045 60.587 38.3607 60.587 37.7759C60.587 37.3445 60.542 37.2774 59.5863 36.4626C57.4227 34.6028 55.2229 33.2895 53.1945 32.6472C52.0135 32.2734 51.3012 32.1679 50.0391 32.1775C48.2991 32.1775 47.1903 32.513 45.9371 33.4045C43.9628 34.8042 42.6465 37.1528 41.9253 40.5847L41.6909 41.7255L41.4836 40.9298C40.8435 38.447 39.6985 35.8587 38.0938 33.2703C36.9759 31.4489 36.5251 30.8642 35.7047 30.1548C33.9648 28.6401 32.4322 28.0266 30.2505 27.9499C29.6104 27.9307 28.9793 27.9307 28.8531 27.9595Z" fill="white"/>
<path d="M54.8541 45.2523C53.5829 45.5399 52.6453 46.5081 52.3298 47.8694C52.0503 49.0581 52.3929 50.2564 53.2494 51.1671C53.8714 51.8093 54.5295 52.0874 55.4491 52.0969C56.2064 52.1065 56.6211 52.0202 56.6211 51.8381C56.6211 51.7806 56.7383 51.4642 56.8825 51.1479C57.1891 50.4577 57.757 49.8346 58.3611 49.499L58.8118 49.2594L58.7577 48.5116C58.6405 46.6711 57.4595 45.3673 55.7466 45.2139C55.4581 45.1852 55.0615 45.2043 54.8541 45.2523Z" fill="white"/>
<path d="M29.9085 49.9301C28.9799 50.9175 28.2227 51.7515 28.2227 51.7803C28.2227 51.8186 28.4751 51.8666 28.7726 51.8857C29.5569 51.9433 29.629 52.0679 29.7012 53.3716C29.9806 58.3565 32.4508 62.4595 36.4807 64.6356C38.4821 65.7188 40.186 66.1119 42.548 66.0256C44.0986 65.9681 44.8109 65.8435 46.0279 65.4217C46.8303 65.1437 48.2727 64.4439 48.5522 64.185L48.7325 64.0221L48.5522 64.0892C46.3164 64.8561 43.8913 64.904 41.7006 64.2138C40.754 63.9166 39.4738 63.2456 38.4821 62.5458C37.5265 61.8651 36.1561 60.4176 35.5792 59.4973C34.3531 57.5417 33.6319 55.1643 33.6319 53.1128C33.6319 52.0679 33.731 51.9433 34.5965 51.8857L35.1825 51.8474L33.4425 49.9876C32.4779 48.9619 31.6755 48.1279 31.6485 48.1279C31.6214 48.1279 30.8371 48.9331 29.9085 49.9301Z" fill="white"/>
<path d="M59.0565 50.7642C58.2902 51.1381 57.9386 51.7899 57.9927 52.739C58.0198 53.2854 58.0648 53.4484 58.2992 53.7551C59.0565 54.7617 60.3998 54.8096 61.1932 53.851C61.9234 52.9691 61.7251 51.5695 60.7875 50.9176C60.3728 50.6204 59.5073 50.5533 59.0565 50.7642Z" fill="white"/>
<path d="M61.5527 55.9617C61.3093 56.048 60.9216 56.3069 60.6872 56.5273C59.398 57.764 59.6054 60.0168 61.1019 60.9467C61.4084 61.1384 61.6699 61.2055 62.1747 61.2438C63.1574 61.3109 63.5901 61.148 64.2032 60.5057C64.8433 59.825 65.0506 59.2211 64.9785 58.3104C64.8162 56.5178 63.1754 55.3866 61.5527 55.9617Z" fill="white"/>
</svg>
