<svg width="89" height="93" viewBox="0 0 89 93" fill="none" xmlns="http://www.w3.org/2000/svg">
<rect x="0.0517578" y="0.230469" width="88.02" height="92.4834" rx="5" fill="#25632D"/>
<path d="M40.3394 23.076C37.4475 23.2822 34.2451 24.2419 31.4951 25.7217C28.0532 27.5693 24.8951 30.4752 22.7483 33.7847C21.9588 35.0134 20.8056 37.3094 20.3354 38.6189C18.1177 44.7445 18.6943 52.0989 21.8258 57.7493C24.7798 63.0588 29.3483 66.9243 34.8838 68.7629C37.3144 69.5791 39.4346 69.9199 42.0692 69.9199C44.0031 69.9199 44.7128 69.8392 46.2652 69.4266C49.3079 68.6194 52.1466 66.8078 54.2668 64.3234C56.8926 61.2471 58.3474 57.2919 58.3474 53.229C58.3474 51.0586 57.7619 47.6415 56.9192 44.8611C56.6797 44.045 56.378 43.6952 55.9168 43.6952C55.349 43.6952 53.6547 45.0136 51.8273 46.8701C49.299 49.4442 47.6313 52.4129 47.1079 55.2649C46.895 56.4398 46.9039 58.5206 47.1168 59.6596C47.4539 61.4265 48.27 63.3099 49.4321 65.005L49.9821 65.8122L49.2636 66.2248C47.6579 67.1486 46.274 67.6688 44.6418 67.9647C43.5507 68.162 41.3773 68.2248 40.1531 68.0993C33.6507 67.4176 27.9556 63.9288 24.2475 58.3592C23.0233 56.5206 21.879 53.8658 21.3556 51.6326C20.8943 49.6774 20.7879 48.6908 20.7879 46.4307C20.7879 44.61 20.8145 44.2064 21.0274 42.9687C22.0475 36.9417 25.587 31.5873 30.7765 28.1971C33.3402 26.5289 36.3918 25.3809 39.4612 24.9415C40.712 24.7531 43.941 24.78 45.2184 24.9773C47.5958 25.354 49.4676 25.937 51.57 26.9594C55.8813 29.0671 59.3675 32.556 61.4522 36.8341C62.2062 38.3857 62.6143 39.4978 63.0135 41.0853C63.4127 42.6548 63.5812 43.7669 63.6611 45.48L63.732 46.8612L64.0159 47.1213C64.424 47.489 64.9208 47.4352 65.2845 46.9778C65.7014 46.4576 65.3022 42.7086 64.5482 39.9731C63.4659 36.0897 61.2482 32.3856 58.2764 29.5155C54.8966 26.2419 50.6474 24.0894 46.1055 23.345C44.0031 22.9952 42.3797 22.9235 40.3394 23.076Z" fill="white"/>
<path d="M37.4018 34.33C36.8518 34.5004 36.2663 35.0475 35.9469 35.6753C35.601 36.3659 35.5743 37.3076 35.8937 38.0161C36.6477 39.7202 38.9897 40.1417 40.2759 38.7964C40.8348 38.2134 41.0034 37.756 41.0034 36.8771C41.0034 36.2044 40.9679 36.0609 40.7372 35.6304C40.4179 35.0385 39.8324 34.5093 39.3001 34.33C38.7945 34.1596 37.9518 34.1506 37.4018 34.33Z" fill="white"/>
<path d="M47.6844 37.4075C46.7263 37.7214 45.8658 38.5824 45.5287 39.569C45.3513 40.0802 45.3513 41.1834 45.5199 41.7574C46.1142 43.7305 48.4473 44.726 50.3102 43.7933C51.0287 43.4435 51.694 42.726 51.969 42.0085C52.2706 41.2461 52.2618 39.9905 51.9424 39.2909C51.1973 37.6497 49.4053 36.8514 47.6844 37.4075Z" fill="white"/>
<path d="M37.8577 42.1161C35.773 42.6094 34.2649 43.8022 33.298 45.7395C32.6859 46.9503 32.5174 48.8516 32.8899 50.2777C33.2093 51.5512 33.6085 52.2329 34.6109 53.2463C35.6044 54.2508 36.3407 54.6813 37.5827 55.0042C38.6383 55.2733 40.377 55.2195 41.273 54.8876C43.3931 54.0894 44.7947 52.6544 45.4689 50.6185C45.673 50.0176 45.6996 49.7754 45.6996 48.6723C45.7084 47.2373 45.5931 46.6902 45.0786 45.6408C44.2802 44.0175 42.9584 42.8695 41.2286 42.3044C40.3238 42.0085 38.6827 41.9188 37.8577 42.1161Z" fill="white"/>
<path d="M62.4734 58.4926C61.2581 58.69 59.963 59.2281 58.9251 59.9725C57.488 61.0039 55.5098 63.6766 55.5098 64.5914C55.5098 64.9681 55.909 65.3717 56.867 65.9726C60.1936 68.0623 63.5646 67.6318 66.2879 64.7529C67.3258 63.6766 68.1775 62.4389 68.7275 61.2461C69.1799 60.2864 69.0202 59.9904 67.796 59.4523C65.9154 58.6182 63.9372 58.2684 62.4734 58.4926Z" fill="white"/>
</svg>
