<svg width="89" height="93" viewBox="0 0 89 93" fill="none" xmlns="http://www.w3.org/2000/svg">
<rect x="0.0517578" y="0.230469" width="88.02" height="92.4834" rx="5" fill="#25632D"/>
<path d="M57.4364 20.0453C57.2966 20.1025 34.9697 27.4901 30.7645 28.8739C28.9362 29.48 27.3983 30.0061 27.366 30.0404C27.3122 30.0976 27.8607 32.2018 27.9683 32.3161C27.979 32.3276 29.1513 31.9616 30.5602 31.5042C37.5293 29.2056 58.1893 22.3554 58.2215 22.3211C58.2646 22.2868 57.6085 19.9767 57.5655 19.9996C57.5547 19.9996 57.501 20.0224 57.4364 20.0453Z" fill="white"/>
<path d="M53.0801 35.9432V43.2051H57.1669H61.2537V35.9432V28.6813H57.1669H53.0801V35.9432Z" fill="white"/>
<path d="M39.7451 38.2304V43.2051H43.8319H47.9188V38.2304V33.2557H43.8319H39.7451V38.2304Z" fill="white"/>
<path d="M26.4082 40.3461V43.2051H30.495H34.5819V40.3461V37.4871H30.495H26.4082V40.3461Z" fill="white"/>
<path d="M22 58.8716V71.4512H43.8323H65.6645V58.8716V46.292H43.8323H22V58.8716ZM29.1412 49.0023C28.8508 50.2946 27.9582 51.8155 27.0225 52.5932C26.4202 53.1078 25.1834 53.7711 24.6134 53.8969L24.2585 53.9769V51.3352V48.6935H26.7321H29.2057L29.1412 49.0023ZM56.3401 49.6084C57.0176 52.8105 59.4267 55.3836 62.4596 56.1727L63.406 56.4128V58.8944V61.3875H63.1479C62.2767 61.3875 60.1903 62.4167 59.0933 63.3773C57.8027 64.5095 56.7057 66.3965 56.3401 68.1233L56.1465 69.0496H43.8323H31.518L31.2814 68.0661C30.8297 66.202 30.0016 64.784 28.6357 63.4688C27.7323 62.5997 26.3127 61.8221 25.1189 61.5362L24.2585 61.3303V58.8487V56.3556H24.5166C24.9576 56.3556 26.2051 55.8982 27.0655 55.4293C29.1842 54.2628 30.8297 51.9871 31.3244 49.5398L31.5072 48.6935H43.8215H56.1465L56.3401 49.6084ZM63.406 51.3352V53.9769L63.0618 53.8969C62.8683 53.8512 62.2982 53.611 61.8035 53.3594C60.1903 52.536 58.9535 50.9007 58.5233 49.0023L58.4588 48.6935H60.9324H63.406V51.3352ZM25.1512 64.0521C26.0868 64.418 26.6783 64.8068 27.3559 65.5159C28.2163 66.3965 28.8831 67.5972 29.1412 68.7294L29.2057 69.0496H26.7321H24.2585V66.4193C24.2585 64.8297 24.3015 63.789 24.3661 63.789C24.4198 63.789 24.7747 63.9034 25.1512 64.0521ZM63.406 66.4193V69.0496H60.9324C59.5773 69.0496 58.4588 69.0267 58.4588 69.0039C58.4588 68.981 58.5556 68.6265 58.6739 68.2262C59.0718 66.8425 60.2226 65.3215 61.4379 64.5781C61.9756 64.2465 62.9973 63.8119 63.2769 63.8005C63.3737 63.789 63.406 64.3837 63.406 66.4193Z" fill="white"/>
<path d="M42.283 52.2958C41.1215 52.616 40.2933 53.1192 39.3684 54.1141C38.0563 55.5322 37.4863 56.9388 37.4863 58.8257C37.4863 60.6669 38.0456 62.1536 39.2394 63.5259C41.5732 66.1791 45.5524 66.3392 48.0691 63.8804C49.3919 62.5996 50.0587 61.0901 50.1447 59.2145C50.2415 57.1561 49.65 55.555 48.2519 54.0683C47.4453 53.2221 46.843 52.8218 45.7138 52.4101C44.9717 52.1357 43.1218 52.0785 42.283 52.2958ZM45.4449 54.9032C48.1658 56.1954 48.7466 59.9808 46.5526 62.0621C45.703 62.8741 44.9932 63.1485 43.7779 63.16C42.9498 63.16 42.7239 63.1142 42.1969 62.8512C41.3365 62.4281 40.5622 61.6275 40.1428 60.7127C39.8309 60.0265 39.7986 59.8664 39.7986 58.8715C39.7986 57.9337 39.8416 57.6936 40.089 57.1332C40.6052 55.9553 41.6269 55.0175 42.7454 54.6745C43.4875 54.4572 44.7243 54.5601 45.4449 54.9032Z" fill="white"/>
</svg>
