<svg width="89" height="93" viewBox="0 0 89 93" fill="none" xmlns="http://www.w3.org/2000/svg">
<rect x="-0.00195312" y="0.230469" width="88.02" height="92.4834" rx="10" fill="#25632D"/>
<path d="M33.5503 23.1787C32.4386 23.5473 31.4591 24.7581 31.0519 26.2954C30.9308 26.7376 30.8868 27.4641 30.8868 28.8224V30.7176L30.3585 30.844C29.3789 31.0651 28.0582 31.6126 27.5849 32.0022C26.11 33.213 26.8365 34.7713 29.2468 35.5821C30.0833 35.8559 30.1273 35.8874 30.0613 36.1401C29.9182 36.7403 29.8742 39.0778 29.9953 39.7832C30.1383 40.5203 30.4905 41.5942 30.8427 42.3102C31.4041 43.4684 32.9339 45.5848 33.6273 46.185C33.8474 46.3745 33.8585 46.4903 33.8585 47.9328V49.4806L31.4701 49.5438C28.3333 49.6175 26.9135 49.8912 25.0204 50.7862C22.0818 52.1761 19.9465 54.5872 19.2311 57.2932C19.011 58.1461 19 58.4409 19 63.6318V69.0859L19.2862 69.2965L19.5833 69.5176H38.7232H57.8631L58.1273 69.2543L58.4024 69.0016V63.9161C58.4024 60.9574 58.3584 58.5462 58.2924 58.1461C57.621 54.1134 54.0659 50.7757 49.4103 49.828C48.5738 49.649 47.7704 49.5859 45.8883 49.5438L43.4339 49.4806V47.9854C43.4339 46.7641 43.4669 46.4587 43.599 46.3534C43.8081 46.185 45.0188 44.7109 45.4921 44.037C47.077 41.8048 47.7704 39.1831 47.3962 36.8772C47.3301 36.4981 47.2531 36.1191 47.2201 36.0138C47.176 35.8874 47.2641 35.8243 47.5282 35.7716C48.0785 35.6558 49.3883 35.0556 49.7955 34.7187C50.7751 33.929 50.731 32.6655 49.7075 31.9495C49.1902 31.581 48.1006 31.1177 47.2751 30.9071L46.5487 30.7281L46.4826 28.7276C46.4276 26.5586 46.2955 25.8637 45.7782 24.9582C45.349 24.2001 44.8427 23.6947 44.1933 23.3472C43.7091 23.0945 43.4669 23.0313 42.8836 23.0313C42.2672 23.0313 41.937 23.1156 40.5503 23.6315C39.6588 23.9684 38.8113 24.2422 38.6682 24.2422C38.5141 24.2422 37.6226 23.9579 36.6871 23.6104C34.816 22.926 34.4748 22.8734 33.5503 23.1787ZM36.4119 25.2003C38.6572 26.0111 38.8113 26.0111 41.1226 25.1372C42.5864 24.5896 42.7515 24.5475 43.1147 24.6528C43.588 24.7897 44.1493 25.3583 44.4465 25.99C44.7326 26.6323 44.8757 27.8747 44.8427 29.4541L44.8097 30.8124L43.9842 31.0546C41.9811 31.6442 41.1006 31.76 38.6462 31.76C36.1918 31.76 35.4213 31.6547 33.4182 31.0546L32.5927 30.8124V28.7171C32.5927 26.7481 32.6147 26.5797 32.8459 26.0953C32.978 25.8005 33.2091 25.4215 33.3632 25.2425C33.6163 24.9266 34.1996 24.5686 34.4858 24.5581C34.5629 24.5581 35.4323 24.8529 36.4119 25.2003ZM33.044 32.6129C35.1242 33.213 36.0487 33.3394 38.7012 33.3394C41.3647 33.3499 42.5314 33.192 44.6776 32.5181L45.8002 32.1601L46.7358 32.4233C47.6823 32.6866 48.7279 33.1604 48.7939 33.3499C48.838 33.5078 48.1886 33.8764 47.2971 34.1817C44.0282 35.3083 36.3349 35.5189 31.7232 34.6134C30.5896 34.3923 29.0707 33.8553 28.7075 33.5605L28.4214 33.3288L28.9166 33.0551C29.6431 32.6445 31.349 32.1285 31.6572 32.2128C31.7452 32.2338 32.3726 32.4233 33.044 32.6129ZM33.3081 36.4665C36.2138 36.8877 41.2987 36.8561 44.5235 36.3928C45.0958 36.3086 45.5801 36.2665 45.6021 36.2875C45.6241 36.3086 45.7012 36.7298 45.7672 37.2352C46.1194 39.7201 45.1619 42.0786 42.6855 44.8899C41.2106 46.564 40.2201 47.1221 38.6352 47.1326C37.8317 47.1431 37.6886 47.1115 36.9182 46.743C36.2248 46.4166 35.8946 46.1744 35.1242 45.3742C33.5613 43.7843 32.2956 41.8469 31.8113 40.2992C31.5361 39.4358 31.5251 36.2454 31.8003 36.2454C31.8113 36.2454 32.4937 36.3402 33.3081 36.4665ZM37.9418 48.6909C39.0204 48.8278 40.154 48.6593 41.1776 48.2066L41.783 47.9433V49.3121C41.783 50.5019 41.805 50.6914 41.9921 50.8704C42.1792 51.0494 42.4433 51.0705 45.1179 51.1126C46.7248 51.1337 48.0785 51.1863 48.1226 51.2179C48.2436 51.3442 47.7594 51.6706 46.4056 52.3761C44.3474 53.4501 42.1021 54.0818 39.8349 54.2292C36.2798 54.4714 32.8019 53.608 29.9512 51.8075L29.0707 51.2495L29.7311 51.1863C30.0943 51.1442 31.4591 51.1126 32.7688 51.1021C35.7405 51.0915 35.5534 51.2074 35.5974 49.3016L35.6415 47.9539L36.3239 48.2592C36.7531 48.4487 37.3694 48.6172 37.9418 48.6909ZM26.3742 59.936V67.9382H23.5126H20.6509L20.6289 63.5897C20.6069 58.6094 20.6069 58.5146 20.827 57.6933C21.4104 55.5138 23.1273 53.5554 25.5267 52.3445C25.956 52.1234 26.3302 51.9339 26.3522 51.9339C26.3632 51.9339 26.3742 55.5349 26.3742 59.936ZM51.9087 52.3972C53.6477 53.3027 55.1115 54.703 55.882 56.1982C56.6854 57.767 56.6744 57.746 56.7295 63.1158L56.7625 67.9382H53.8458H50.9182V59.936C50.9182 52.3656 50.9292 51.9444 51.1163 52.0076C51.2153 52.0497 51.5785 52.2182 51.9087 52.3972ZM29.0707 53.1974C30.1603 53.9028 31.4921 54.5241 32.8239 54.9452C37.5566 56.4614 42.4103 56.1561 46.6587 54.0713C47.3301 53.7449 48.1886 53.2711 48.5738 53.0289L49.2672 52.5867V60.2624V67.9382H38.6462H28.0251V60.2414C28.0251 54.1239 28.0582 52.5656 28.1682 52.6288C28.2343 52.6709 28.6525 52.9341 29.0707 53.1974Z" fill="white"/>
<path d="M51.258 26.9793C50.8618 27.0319 50.2014 27.1793 49.7942 27.2951C49.1889 27.4741 48.9907 27.5794 48.8146 27.8532C48.4404 28.4217 48.5835 28.8008 49.464 29.6115C49.8712 29.9906 50.5756 30.7908 51.0159 31.3804C52.1385 32.8756 52.6668 33.4126 53.3932 33.7706C54.4278 34.2654 55.7706 34.2338 56.5631 33.6969C56.9593 33.4231 57.0693 33.4757 57.7187 34.2338L58.181 34.7814V38.1191C58.181 40.983 58.159 41.4253 58.0269 41.2989C57.9058 41.1726 57.8948 41.0146 57.9608 40.6145C58.214 39.1194 57.3335 37.6874 55.6495 36.8767C54.5819 36.3607 54.0536 36.2344 52.6558 36.1712C50.1684 36.0554 48.5945 36.624 48.6055 37.6348C48.6165 37.9928 48.8036 38.256 49.5741 38.9299C49.9483 39.2563 50.6417 40.0565 51.126 40.7093C52.4687 42.5308 53.3712 43.1942 54.681 43.2784C55.5065 43.3416 55.9797 43.2468 56.464 42.9309C56.6841 42.7835 56.9153 42.6677 56.9703 42.6677C57.0253 42.6677 57.3225 42.952 57.6307 43.31L58.181 43.9417V48.185C58.181 51.0068 58.225 52.5441 58.302 52.7652C58.5112 53.3232 59.1495 53.4812 59.5898 53.0916C59.8319 52.881 59.8319 52.8283 59.8319 49.8275V46.7951L60.2501 46.4898C60.8775 46.016 60.8775 46.016 61.4829 46.374C61.9891 46.6688 62.1432 46.7109 62.8366 46.7109C64.2124 46.7214 65.0049 46.1844 66.4026 44.2892C66.8319 43.7206 67.4813 42.9836 67.8555 42.6466C68.4828 42.0991 68.5269 42.0254 68.5269 41.5937C68.5269 41.2463 68.4608 41.0673 68.2737 40.8988C67.5913 40.2776 65.335 39.9722 63.7942 40.2881C62.2313 40.604 60.9105 41.4358 60.3822 42.415C60.1511 42.8256 60.1071 43.0678 60.1071 43.7943C60.1071 44.3945 60.063 44.6788 59.975 44.7209C59.8649 44.7525 59.8319 44.0154 59.8319 41.2042C59.8319 37.6558 59.8319 37.6453 60.0851 37.4347C60.2171 37.3189 60.4593 37.1399 60.6134 37.0451C60.8995 36.8767 60.9215 36.8767 61.4829 37.2136C61.9781 37.5084 62.1432 37.5505 62.7816 37.5505C64.1354 37.54 65.1259 36.8872 66.3586 35.1604C66.986 34.2865 67.3382 33.8969 68.1857 33.1599C68.6369 32.7703 68.6699 32.0964 68.2627 31.7279C67.5473 31.0856 65.4121 30.8013 63.7942 31.1277C62.1983 31.4541 60.8665 32.2965 60.3382 33.3178C60.1071 33.76 60.052 34.0127 60.052 34.6761C60.052 35.1288 60.008 35.5289 59.942 35.5605C59.8759 35.6026 59.8319 35.3921 59.8319 35.013C59.8319 34.276 59.5457 33.76 58.5772 32.7071L57.9168 32.0017L57.9388 31.0962C57.9719 30.2854 57.9388 30.1275 57.6527 29.5589C56.7502 27.7479 53.9656 26.6318 51.258 26.9793ZM53.9656 28.7166C54.78 28.9587 55.6165 29.4641 55.9797 29.9485C56.2879 30.3486 56.409 30.7698 56.2219 30.7698C56.1778 30.7698 55.7266 30.4855 55.2093 30.138C54.703 29.78 54.1747 29.4747 54.0536 29.4431C53.4703 29.3062 52.931 29.8432 53.0741 30.4223C53.1401 30.675 54.1307 31.4436 55.1322 32.0227C55.6385 32.3175 55.6495 32.4228 55.1653 32.5176C54.3398 32.665 53.6024 32.128 52.4577 30.5592C52.1385 30.1275 51.6653 29.5273 51.4011 29.222C51.137 28.9271 50.9168 28.6534 50.9168 28.6323C50.9168 28.4217 53.1621 28.4849 53.9656 28.7166ZM66.0835 32.844C65.9294 33.0125 65.5662 33.4652 65.28 33.8759C64.0693 35.5395 63.3429 36.1396 62.7156 35.9817C62.4514 35.9185 62.4624 35.8975 63.0457 35.5079C63.3759 35.2868 63.6951 34.9814 63.7722 34.834C64.0143 34.3181 63.585 33.7179 62.9687 33.7179C62.8917 33.7179 62.5725 33.8864 62.2643 34.0864C61.681 34.476 61.5599 34.4128 61.9011 33.9074C62.4844 33.0651 63.7281 32.5808 65.324 32.5702L66.3696 32.5597L66.0835 32.844ZM53.8665 37.898C55.0992 38.1928 56.3099 39.1404 56.3099 39.8143C56.3099 40.0354 56.2989 40.0354 56.0127 39.8564C55.8366 39.7511 55.3414 39.4247 54.8901 39.1194C54.4388 38.814 54.0096 38.5613 53.9326 38.5613C53.3602 38.5613 52.909 39.151 53.1071 39.6353C53.2171 39.9196 54.2187 40.6882 55.1653 41.2357C55.6385 41.499 55.6826 41.5516 55.4844 41.6253C54.5819 41.9623 53.7565 41.499 52.6558 39.9933C52.2156 39.4142 51.6433 38.6772 51.3791 38.3718C51.0489 38.0033 50.9499 37.8138 51.0489 37.7716C51.5662 37.6032 52.887 37.6558 53.8665 37.898ZM66.1385 41.7833C66.1715 41.8254 65.9954 42.1202 65.7313 42.4466C65.4781 42.773 65.1039 43.2679 64.8948 43.5627C64.2014 44.5735 63.3979 45.1947 62.8036 45.1947C62.4514 45.1947 62.5395 45.0262 63.1338 44.6261C63.7501 44.205 63.9483 43.8575 63.8052 43.4784C63.563 42.8888 63.0017 42.7625 62.4184 43.1731C61.692 43.668 61.67 43.668 61.758 43.3942C61.9451 42.8046 62.8806 42.1518 63.9042 41.8885C64.5096 41.7306 66.0064 41.6674 66.1385 41.7833Z" fill="white"/>
</svg>
