<svg width="141" height="84" viewBox="0 0 141 84" fill="none" xmlns="http://www.w3.org/2000/svg">
<rect width="140" height="107" transform="translate(0.245117 -11.5)" fill="#F5F7FA"/>
<path d="M91.2678 43.108C84.9574 43.5586 79.4561 41.6175 74.5038 37.9214C74.1944 37.6905 73.9071 37.4294 73.6164 37.1746C72.7264 36.3945 72.6856 36.3923 71.7985 37.1297C70.396 38.2954 68.9037 39.3176 67.2975 40.1982C64.0061 42.0027 60.5106 43.0945 56.7604 43.1758C51.2003 43.2963 46.2846 41.7493 42.6065 37.3011C42.2596 36.8815 41.9454 36.4316 41.6499 35.974C41.4427 35.6532 41.3412 35.2847 41.7114 34.9966C42.0537 34.7303 42.4471 34.709 42.7814 34.9907C43.0383 35.2072 43.2534 35.4823 43.4528 35.7562C46.2027 39.5337 50.0243 41.1949 54.5905 41.4304C60.9651 41.7591 66.3934 39.5046 71.1667 35.4356C72.6344 34.1844 72.7238 34.1907 74.1699 35.4552C77.8422 38.6662 82.0691 40.7936 86.9235 41.3522C90.5761 41.7725 94.2089 41.4283 97.5449 39.6152C99.0648 38.7891 100.348 37.6779 101.436 36.3391C101.737 35.9685 102.016 35.5801 102.315 35.2073C102.644 34.796 103.076 34.6595 103.519 34.9566C104.003 35.2807 103.793 35.73 103.566 36.1024C102.58 37.7197 101.25 39.0184 99.7165 40.1106C97.2074 41.8974 94.3726 42.7908 91.2678 43.108Z" fill="#24712C"/>
<path d="M102.886 42.4704C102.121 43.6233 101.027 44.3395 99.936 45.0313C95.7829 47.6637 91.17 48.6915 86.3486 48.2297C81.5091 47.7661 77.1576 45.8784 73.5024 42.5708C72.687 41.8329 72.6617 41.8269 71.8403 42.566C69.1668 44.9719 66.0769 46.6368 62.6209 47.57C59.3716 48.4474 56.091 48.5425 52.7538 47.8676C50.0094 47.3126 47.4639 46.3796 45.1228 44.863C44.2977 44.3285 43.5472 43.7034 42.8348 43.0297C42.4855 42.6993 42.1665 42.3532 42.5804 41.8685C42.9838 41.396 43.4324 41.527 43.8528 41.8414C44.6543 42.4407 45.4406 43.056 46.2878 43.5965C48.5913 45.0659 51.0983 45.932 53.7974 46.3229C60.2392 47.2557 65.8598 45.497 70.7437 41.2574C71.139 40.9143 71.5412 40.5789 71.9432 40.2437C72.414 39.8512 72.8907 39.8418 73.3636 40.24C74.0078 40.7823 74.6419 41.3367 75.2936 41.8698C77.816 43.9336 80.6326 45.4607 83.8366 46.1022C90.1584 47.3678 95.9554 46.1794 101.078 42.146C101.274 41.9916 101.478 41.8411 101.698 41.7241C102.345 41.3792 102.809 41.6534 102.886 42.4704Z" fill="#24712C"/>
<path d="M57.7919 53.4746C54.3366 53.4965 50.9967 53.1854 47.7783 52.0338C47.4978 51.9334 47.2212 51.829 46.9899 51.6371C46.7087 51.4037 46.5139 51.1373 46.7109 50.7515C46.8925 50.396 47.1924 50.2709 47.5662 50.3622C48.0966 50.4918 48.6324 50.6149 49.1452 50.7985C52.0825 51.85 55.1244 51.9277 58.1878 51.775C61.174 51.6262 64.0368 50.9214 66.7835 49.7532C68.6781 48.9473 70.2334 47.6558 71.7235 46.2684C72.5973 45.4547 72.7709 45.4494 73.6421 46.301C75.3899 48.0094 77.3446 49.4046 79.6461 50.2499C83.4707 51.6547 87.4248 52.0439 91.4803 51.7369C93.4584 51.5872 95.3206 51.0181 97.2052 50.4981C97.271 50.48 97.3343 50.4529 97.4003 50.4357C97.8275 50.3241 98.276 50.1919 98.5383 50.7028C98.7418 51.099 98.4518 51.6726 97.8991 51.8988C96.1814 52.6016 94.3826 52.9962 92.5433 53.2088C89.9127 53.5127 87.2787 53.6423 84.6484 53.2207C80.4193 52.5426 76.4574 51.2362 73.2701 48.2114C72.8149 47.7794 72.5131 47.7855 72.0807 48.1931C68.8494 51.2394 64.8715 52.5984 60.5764 53.2302C59.6751 53.3627 58.7698 53.4512 57.7919 53.4746Z" fill="#24712C"/>
<path d="M51.2393 34.4968C53.3134 36.0863 55.542 36.903 58.1561 36.4126C59.0953 36.2364 59.831 35.7392 60.5758 35.2162C60.93 34.9675 61.2839 34.7133 61.7505 34.7318C62.3454 34.7554 62.6152 35.1468 62.408 35.7029C62.2493 36.1286 61.9058 36.4006 61.5565 36.6565C58.9589 38.5605 56.1289 38.5788 53.2397 37.5486C51.2965 36.8557 49.6291 35.7331 48.5506 33.8828C48.271 33.4031 48.2825 33.0253 48.5889 32.5691C51.2249 28.6447 57.2185 26.6158 61.8987 30.2457C62.444 30.6686 62.9109 31.1677 63.2524 31.765C63.5218 32.2361 63.9076 32.4237 64.4317 32.4173C65.1603 32.4084 65.8892 32.4132 66.6178 32.4216C67.1218 32.4273 67.6018 32.4845 67.6393 33.1484C67.6735 33.7545 67.4233 34.0355 66.6475 34.0611C65.1687 34.1099 63.6879 34.108 62.2079 34.1089C59.3841 34.1105 56.5603 34.1004 53.7365 34.0917C53.464 34.0908 53.1901 34.0782 52.9192 34.0493C52.4105 33.9951 52.1364 33.726 52.1656 33.1905C52.1951 32.6497 52.508 32.4286 53.0159 32.4267C54.4734 32.4212 55.9308 32.4176 57.3883 32.4153C58.5953 32.4135 59.8022 32.4158 61.0092 32.4131C61.1645 32.4127 61.329 32.4285 61.4696 32.3021C61.4916 31.966 61.2077 31.8432 61.0152 31.6811C57.6238 28.8255 52.9275 30.0106 50.4653 32.7993C50.1728 33.1307 50.1451 33.431 50.4757 33.7461C50.7223 33.9812 50.961 34.2245 51.2393 34.4968Z" fill="#24712C"/>
<path d="M88.9646 36.5251C91.382 36.4534 93.2211 35.3119 94.8543 33.742C95.1804 33.4286 95.1614 33.1202 94.8587 32.7929C92.1575 29.8717 87.8254 29.0005 84.507 31.4996C84.2213 31.7148 83.9243 31.9273 83.7656 32.3146C84.0741 32.4949 84.3976 32.4239 84.7028 32.4246C87.2085 32.4307 89.7142 32.425 92.2198 32.431C92.6839 32.4321 93.1783 32.4377 93.2224 33.0829C93.2573 33.5949 93.1243 33.9474 92.4961 33.9971C90.2205 34.177 87.9428 34.0536 85.6666 34.0842C83.5485 34.1127 81.4297 34.0922 79.3113 34.0867C78.9935 34.0859 78.6759 34.0494 78.3582 34.0293C77.8401 33.9965 77.5753 33.7618 77.6047 33.2029C77.6343 32.6419 77.9486 32.4504 78.4461 32.4418C79.3115 32.4269 80.1771 32.4092 81.0426 32.4134C81.4178 32.4152 81.683 32.2925 81.8993 31.973C84.8034 27.6814 90.7257 27.2322 94.7946 30.5087C95.49 31.0686 96.0928 31.7101 96.6426 32.4136C97.0484 32.9328 97.0827 33.3929 96.7321 33.9654C95.6721 35.6966 94.1099 36.7958 92.261 37.4938C89.7556 38.4397 87.2445 38.5412 84.7879 37.28C84.1949 36.9756 83.6616 36.5875 83.2139 36.0954C82.9557 35.8116 82.6377 35.49 82.985 35.0881C83.3157 34.7053 83.7478 34.6059 84.2165 34.863C84.3758 34.9504 84.5416 35.0388 84.6741 35.1598C85.8758 36.2577 87.3053 36.6422 88.9646 36.5251Z" fill="#24712C"/>
<path d="M60.9969 57.3206C64.3711 56.9631 67.3709 55.7977 70.0523 53.8283C70.6192 53.4119 71.1352 52.9256 71.6676 52.4634C72.5351 51.7103 72.8211 51.6833 73.6392 52.4654C75.4972 54.2418 77.6495 55.5643 80.0662 56.3773C83.7384 57.6125 87.4854 57.9701 91.2747 56.8457C92.186 56.5752 92.7567 56.7214 92.9094 57.272C93.0326 57.716 92.5959 58.1638 91.7731 58.4171C88.3528 59.47 84.933 59.3798 81.4825 58.5138C78.9769 57.8849 76.6393 56.9351 74.5593 55.395C74.1028 55.0571 73.6498 54.7043 73.2487 54.3048C72.8358 53.8935 72.5208 53.9092 72.0985 54.3C70.3198 55.946 68.2466 57.1042 65.9682 57.9154C62.3752 59.1947 58.7047 59.5407 54.9519 58.8186C54.3531 58.7034 53.7715 58.4815 53.1955 58.2718C52.7521 58.1104 52.3118 57.8666 52.4979 57.2846C52.6897 56.6847 53.1918 56.5795 53.7215 56.7625C54.873 57.1603 56.0642 57.3001 57.2647 57.4393C58.4998 57.5826 59.7183 57.5282 60.9969 57.3206Z" fill="#24712C"/>
<path d="M61.181 17.4671C60.4847 17.2106 59.8119 17.1018 59.1301 17.0393C58.8255 17.0114 58.567 17.0874 58.5375 17.4434C58.3395 19.8274 58.6149 22.0501 60.7047 23.637C61.3127 24.0987 62.0141 24.3653 62.7365 24.5836C63.023 24.6702 63.2988 24.7758 63.5089 24.9989C63.716 25.2189 63.7563 25.4776 63.6563 25.7585C63.5622 26.0225 63.3602 26.1527 63.092 26.1885C62.7476 26.2346 62.4109 26.1967 62.0808 26.0885C59.3742 25.2021 57.6815 23.3873 56.9556 20.6288C56.5674 19.1537 56.6603 17.7073 56.9865 16.2525C57.1726 15.4226 57.4895 15.2553 58.3512 15.2943C60.4759 15.3904 62.4392 15.9329 64.1264 17.2722C65.8756 18.6606 66.6959 20.5263 66.8471 22.7137C66.88 23.1891 66.9173 23.6775 66.8471 24.1442C66.6915 25.1777 67.0664 25.9932 67.7199 26.7517C68.1345 27.233 68.4835 27.7704 68.8659 28.2797C69.1554 28.6651 69.172 29.0596 68.8034 29.3741C68.4298 29.6928 67.9981 29.5813 67.6917 29.27C67.2466 28.8177 66.8502 28.3146 66.4586 27.8133C64.3865 25.1604 62.323 22.5007 60.2549 19.8447C59.8853 19.3699 59.8726 18.8133 60.2721 18.5093C60.755 18.1419 61.1785 18.3533 61.5384 18.7304C62.5485 19.7888 63.2736 21.065 64.1783 22.2048C64.4439 22.5394 64.6747 22.9012 65.0244 23.1827C65.6663 21.328 63.8344 18.6014 61.181 17.4671Z" fill="#24712C"/>
<path d="M82.4294 24.6533C84.186 24.1165 85.6009 23.2011 86.3006 21.5006C86.8143 20.2518 87.0015 18.9248 86.8062 17.562C86.7491 17.1639 86.5774 17.0033 86.1785 17.0464C83.0431 17.385 80.7593 18.8743 80.1746 22.3553C80.1309 22.6152 80.0555 22.8876 80.2454 23.1777C80.6542 23.0095 80.8336 22.6226 81.0715 22.3169C81.7832 21.4018 82.4594 20.4592 83.1599 19.5353C83.3653 19.2644 83.5955 19.0101 83.8322 18.7655C84.179 18.4071 84.5634 18.0678 85.0601 18.5077C85.5272 18.9213 85.4405 19.3751 85.0776 19.8316C84.3137 20.7926 83.5581 21.7603 82.8082 22.7323C81.2116 24.8022 79.6209 26.8766 78.0272 28.9487C77.9441 29.0568 77.8696 29.1764 77.7683 29.2646C77.3734 29.6085 76.9023 29.63 76.5095 29.3491C76.092 29.0507 76.2278 28.6237 76.4913 28.2623C77.0268 27.5279 77.5628 26.7934 78.1207 26.0761C78.414 25.699 78.5153 25.3363 78.4758 24.8307C78.2087 21.4109 79.0703 18.4548 82.2054 16.5721C83.7813 15.6257 85.5493 15.3003 87.3707 15.2543C87.8344 15.2426 88.1668 15.4743 88.284 15.9259C89.388 20.1796 87.6632 24.901 82.9249 26.1434C82.544 26.2433 82.1618 26.3399 81.8393 26.0081C81.3869 25.5424 81.5766 25.0774 82.4294 24.6533Z" fill="#24712C"/>
<path d="M52.5822 22.5899C53.1627 22.7372 52.9633 22.3897 52.8612 22.1974C51.9596 20.4986 50.1128 19.0432 47.7566 19.428C47.151 19.5268 46.5567 19.6937 45.9565 19.8263C45.5278 19.9211 45.3337 20.1384 45.4606 20.6057C46.1992 23.3243 47.812 25.1446 50.7707 25.0514C51.2031 25.0378 51.6362 25.0453 52.069 25.0446C52.5145 25.0438 52.8283 25.2311 52.8831 25.6951C52.9429 26.2008 52.618 26.4553 52.1853 26.5582C51.0029 26.8393 49.8341 26.6804 48.6743 26.3962C46.204 25.7908 44.8571 24.0663 44.085 21.7823C43.9106 21.2665 43.8237 20.7208 43.6428 20.2078C43.3975 19.5119 43.6775 19.0472 44.2521 18.7268C47.8328 16.7307 52.862 17.4473 54.597 22.0531C54.6851 22.2869 54.7895 22.5191 54.8402 22.7617C55.0231 23.6364 55.4535 24.2896 56.3036 24.6734C56.758 24.8785 57.1267 25.242 56.8072 25.8157C56.4954 26.3757 56.0092 26.2702 55.5603 26.0315C53.1087 24.728 50.6623 23.4148 48.2215 22.0913C47.7599 21.8409 47.3516 21.4939 47.659 20.8924C47.9066 20.4081 48.3156 20.3057 48.8101 20.573C50.0512 21.2438 51.2963 21.9072 52.5822 22.5899Z" fill="#24712C"/>
<path d="M89.1647 24.5834C89.8582 24.2598 90.1693 23.7421 90.366 23.0573C91.2022 20.1464 92.9854 18.1836 96.1027 17.7471C97.8612 17.5009 99.5424 17.9071 101.11 18.7335C101.514 18.9463 101.794 19.2948 101.706 19.7908C101.369 21.6983 100.787 23.4918 99.3647 24.9143C98.33 25.9494 97.052 26.419 95.643 26.5965C95.0346 26.6732 94.4178 26.6891 93.804 26.7139C93.4839 26.7269 93.1665 26.6756 92.877 26.5219C92.5006 26.3219 92.3936 25.9967 92.4702 25.6001C92.547 25.2029 92.8252 25.0216 93.2028 25.0147C93.6806 25.0058 94.1591 25.0491 94.6371 25.0444C97.2018 25.0195 99.0534 23.59 99.7316 21.1214C100.056 19.9422 100.045 19.9562 98.8243 19.6445C97.1922 19.2279 95.6227 19.2004 94.1792 20.2275C93.3294 20.8322 92.7404 21.6369 92.2955 22.5892C92.6369 22.7324 92.8284 22.5248 93.0356 22.4175C94.2078 21.8102 95.3798 21.2023 96.5403 20.5733C96.9814 20.3343 97.3392 20.4056 97.6193 20.7856C97.904 21.1718 97.7303 21.5102 97.4344 21.8164C97.1439 22.1169 96.7832 22.3144 96.423 22.5071C94.2557 23.6668 92.0846 24.8195 89.9129 25.9711C89.753 26.0558 89.5843 26.1384 89.4097 26.1781C89.012 26.2686 88.6697 26.1378 88.4762 25.7823C88.2838 25.429 88.4365 25.1218 88.7301 24.8833C88.8534 24.7833 88.9908 24.7005 89.1647 24.5834Z" fill="#24712C"/>
<path d="M62.5673 7.63597C63.0208 8.55299 63.4489 9.42477 63.9528 10.4508C64.2291 9.48631 64.0964 8.7364 63.7879 8.00102C63.233 6.6783 62.1906 5.8855 60.9037 5.35227C60.4903 5.18101 60.2485 5.30643 60.1365 5.72041C59.7728 7.06488 59.6852 8.40931 60.2199 9.73024C60.4983 10.418 61.0601 10.8344 61.7048 11.1708C62.0774 11.3653 62.4964 11.5491 62.4867 12.0993C62.4749 12.7676 62.0885 13.085 61.4655 12.8483C59.9813 12.2845 58.9694 11.2684 58.4174 9.75232C57.8533 8.20296 58.09 6.7073 58.5547 5.21277C59.1872 3.17847 59.2885 3.11962 61.3366 3.79264C63.488 4.49962 64.9825 5.92231 65.6258 8.1043C65.951 9.20755 65.8753 10.3692 65.4844 11.461C65.166 12.3503 65.0938 13.1781 65.6656 13.9849C65.7165 14.0567 65.7323 14.153 65.766 14.2373C65.9503 14.6984 65.902 15.1099 65.418 15.3332C64.9383 15.5546 64.5654 15.3271 64.3338 14.9048C63.9406 14.1877 63.567 13.4593 63.2083 12.7243C62.5109 11.2951 61.8346 9.85564 61.1376 8.42628C60.9872 8.11789 60.9217 7.83301 61.1231 7.52849C61.5418 6.89533 62.1148 6.91967 62.5673 7.63597Z" fill="#24712C"/>
<path d="M80.1999 12.7741C80.0212 12.0893 79.8147 11.4636 79.6615 10.8251C78.8298 7.35937 81.5475 3.92249 85.28 3.45482C85.8207 3.38707 86.1956 3.57491 86.3786 4.04242C87.202 6.14579 87.662 8.27017 86.5947 10.4417C86.0365 11.5776 85.1224 12.3293 83.9918 12.8437C83.54 13.0493 83.1822 12.8763 82.9379 12.4911C82.6806 12.0854 82.8615 11.7559 83.1986 11.4853C83.2517 11.4427 83.3062 11.399 83.3664 11.3684C85.5715 10.2496 85.7458 8.35364 85.3264 6.23985C85.1169 5.18405 84.9303 5.10281 83.957 5.56842C82.4104 6.30835 81.4225 7.46679 81.2367 9.21323C81.204 9.52133 81.1656 9.84903 81.4018 10.1716C81.9229 9.64487 82.0774 8.93501 82.4338 8.34403C82.6213 8.03307 82.7811 7.70323 82.9908 7.40847C83.1938 7.12321 83.4879 6.99997 83.8285 7.17728C84.1786 7.35959 84.405 7.63329 84.3118 8.0572C84.2733 8.23257 84.1962 8.40253 84.1172 8.56555C83.136 10.5906 82.1527 12.6146 81.1644 14.6362C81.0754 14.8182 80.9692 15.0007 80.8342 15.1498C80.5256 15.4907 80.1486 15.4864 79.7831 15.2595C79.4214 15.0349 79.3404 14.7113 79.526 14.3166C79.7577 13.8239 79.9739 13.324 80.1999 12.7741Z" fill="#24712C"/>
<path d="M73.5306 7.59389C75.1531 9.18279 76.3087 10.9987 77.0114 13.1152C77.8695 15.6999 77.1742 17.9385 75.5744 19.9961C75.2752 20.3808 74.8954 20.6234 74.3886 20.3594C73.9345 20.123 73.7444 19.7889 74.0605 19.3072C74.1601 19.1553 74.2539 18.9971 74.3716 18.8599C75.9846 16.9774 75.9897 14.8997 75.1019 12.7277C74.6169 11.5413 73.9389 10.4671 73.0837 9.50666C72.8647 9.26073 72.6442 9.07209 72.3582 9.40343C70.6671 11.3622 69.3546 13.4673 69.712 16.2208C69.8489 17.276 70.3864 18.1338 71.0134 18.9557C71.3191 19.3563 71.6821 19.7676 71.1016 20.2408C70.634 20.622 70.2083 20.5484 69.7143 19.9339C67.8506 17.6158 67.5189 15.0494 68.589 12.3125C69.2923 10.514 70.3637 8.93842 71.7793 7.60894C72.5346 6.89955 72.6627 6.89748 73.5306 7.59389Z" fill="#24712C"/>
<path d="M78.1244 60.8934C79.5944 61.2732 81.0301 61.4673 82.4975 61.3863C82.6769 61.3764 82.8647 61.3908 83.0386 61.4342C83.5056 61.5508 83.7152 61.8651 83.6735 62.3428C83.6329 62.8073 83.3583 63.0235 82.909 63.05C79.3826 63.2582 76.1187 62.5393 73.3008 60.2982C72.8831 59.966 72.5608 59.8917 72.1118 60.2534C69.3078 62.5117 66.0534 63.2546 62.5206 63.0617C61.9709 63.0317 61.6489 62.8423 61.6305 62.2733C61.613 61.7335 62 61.3505 62.5914 61.3685C63.8247 61.4059 65.044 61.3394 66.2558 61.0819C68.1845 60.6721 69.9207 59.8735 71.4473 58.6244C71.6234 58.4804 71.808 58.3469 71.9874 58.2068C72.474 57.827 72.9407 57.8484 73.4046 58.2562C74.7738 59.4597 76.3292 60.3353 78.1244 60.8934Z" fill="#24712C"/>
<path d="M55.9212 75.3724C55.9555 75.8199 56.2454 75.8245 56.5232 75.8247C57.2967 75.8253 58.0703 75.8064 58.8436 75.8154C59.3015 75.8207 59.4311 75.5818 59.4238 75.1734C59.4116 74.4922 59.4176 73.8107 59.4197 73.1294C59.4213 72.5755 59.6675 72.1879 60.2454 72.1589C60.8158 72.1304 60.8965 72.6159 60.9094 73.0141C60.9542 74.3979 60.9572 75.7831 60.9646 77.1678C60.9695 78.0761 60.9778 78.9854 60.9391 79.8923C60.9189 80.3672 60.7657 80.8051 60.1445 80.7925C59.5096 80.7796 59.4298 80.3418 59.4244 79.8534C59.4174 79.2175 59.4079 78.5813 59.4204 77.9457C59.4283 77.5471 59.2712 77.3601 58.8604 77.3663C58.0644 77.3784 57.2679 77.3803 56.4718 77.3692C56.0581 77.3635 55.9061 77.5562 55.9125 77.9509C55.9225 78.5639 55.9386 79.1792 55.8963 79.7897C55.8617 80.2885 55.8107 80.8397 55.08 80.7988C54.4164 80.7616 54.3602 80.2841 54.3596 79.7775C54.3573 77.5971 54.3569 75.4168 54.3564 73.2365C54.3564 73.1457 54.3588 73.0545 54.3682 72.9643C54.4162 72.5031 54.6644 72.1637 55.122 72.1311C55.6284 72.0951 55.8544 72.5013 55.882 72.9292C55.933 73.7209 55.91 74.5173 55.9212 75.3724Z" fill="#24712C"/>
<path d="M63.3951 76.1206C63.3955 75.1667 63.3766 74.2804 63.4017 73.3955C63.4296 72.4136 63.7581 72.0654 64.7188 72.0393C65.8554 72.0083 66.9936 72.0192 68.1308 72.0353C68.5687 72.0415 69.0147 72.101 69.1583 72.6348C69.3275 73.2634 69.0505 73.6659 68.3882 73.6867C67.479 73.7152 66.5682 73.7194 65.6587 73.7023C65.139 73.6924 64.9379 73.8819 64.9337 74.419C64.9225 75.8599 64.9017 75.8587 66.3691 75.8444C66.7784 75.8404 67.1889 75.8269 67.597 75.8504C67.9365 75.8699 68.3276 75.8894 68.3456 76.3615C68.3636 76.8355 68.2001 77.197 67.6552 77.2896C66.9979 77.4014 66.3375 77.362 65.6807 77.3481C65.125 77.3364 64.8676 77.5272 64.9403 78.0959C64.9546 78.2077 64.9429 78.3227 64.9435 78.4363C64.9486 79.3497 64.9486 79.35 65.8518 79.3528C66.6936 79.3553 67.5353 79.3538 68.377 79.3602C68.8198 79.3636 69.1532 79.5484 69.1568 80.0262C69.1603 80.5078 68.87 80.7877 68.3822 80.7929C67.0651 80.8068 65.752 80.9625 64.4294 80.8264C63.7144 80.7529 63.4113 80.3995 63.4054 79.7315C63.395 78.5507 63.3978 77.3697 63.3951 76.1206Z" fill="#24712C"/>
<path d="M28.8611 77.8521C28.633 78.3325 28.7431 78.7948 28.7141 79.2444C28.6937 79.5615 28.7016 79.8819 28.659 80.1958C28.6068 80.5794 28.3964 80.8014 27.97 80.7964C27.5479 80.7915 27.3271 80.5784 27.2894 80.1876C27.235 79.6229 27.1825 79.0548 27.1841 78.4884C27.189 76.6928 27.1104 74.8961 27.2612 73.1018C27.3047 72.5844 27.4941 72.1704 28.0415 72.1644C28.6196 72.158 28.6898 72.6632 28.7036 73.102C28.7281 73.8832 28.7105 74.6656 28.7105 75.4475C28.7844 75.4686 28.8582 75.4898 28.9321 75.5109C29.4553 74.9253 29.9873 74.3471 30.4989 73.7515C30.9 73.2845 31.3011 72.8178 31.7818 72.4318C32.0491 72.2172 32.3629 71.9865 32.6957 72.2918C33.0541 72.6206 33.0462 73.0525 32.767 73.4035C32.1728 74.1506 31.5716 74.9013 30.8929 75.5691C30.4245 76.0301 30.5095 76.3037 30.904 76.7393C31.6974 77.6156 32.4325 78.5448 33.1827 79.4596C33.4717 79.8119 33.7074 80.2284 33.291 80.6075C32.8645 80.9958 32.4879 80.667 32.157 80.3767C31.2983 79.6231 30.6264 78.6952 29.8344 77.8792C29.5501 77.5862 29.2425 77.3165 28.8611 77.8521Z" fill="#24712C"/>
<path d="M101.554 78.9423C101.228 78.2325 101.244 77.5286 101.247 76.8234C101.254 75.5981 101.251 74.3727 101.247 73.1474C101.246 72.5981 101.459 72.1826 102.042 72.159C102.616 72.1358 102.71 72.6152 102.761 73.0572C102.795 73.3489 102.787 73.6458 102.79 73.9404C102.8 74.7765 102.839 74.8073 103.645 74.5821C105.789 73.9828 108.056 76.013 107.551 78.127C107.22 79.5093 106.364 80.4821 104.906 80.7433C103.573 80.9822 102.584 80.3492 101.794 79.335C101.711 79.2282 101.648 79.106 101.554 78.9423ZM103.094 78.7233C103.497 79.2415 104.071 79.3622 104.673 79.3443C105.477 79.3203 106.029 78.7176 106.125 77.8229C106.212 77.0101 105.819 76.3721 105.068 76.151C104.385 75.9502 103.665 75.906 103.164 76.4711C102.595 77.1132 102.68 77.8888 103.094 78.7233Z" fill="#24712C"/>
<path d="M82.4897 78.6158C82.934 78.5139 83.2284 78.6519 83.3509 79.0317C83.488 79.4565 83.193 79.7182 82.9032 79.9429C81.1632 81.2928 78.4426 80.9337 77.098 79.1827C76.0622 77.8339 75.7532 76.3729 76.4566 74.7763C77.1728 73.1506 78.5004 72.3141 80.1984 72.0613C81.0872 71.929 81.9021 72.279 82.6236 72.797C83.0098 73.0743 83.0903 73.4646 82.8679 73.8825C82.6194 74.3494 82.2139 74.3141 81.8057 74.1394C81.1966 73.8789 80.606 73.6565 79.9033 73.7682C78.675 73.9634 78.0069 74.7182 77.7426 75.8422C77.4806 76.9561 77.7751 77.9787 78.618 78.7684C79.3838 79.486 80.3084 79.4623 81.2417 79.1285C81.6477 78.9833 82.0399 78.7995 82.4897 78.6158Z" fill="#24712C"/>
<path d="M48.8817 73.7949C48.5178 73.877 48.2802 74.0246 48.2646 74.3849C48.2494 74.7382 48.4893 74.9162 48.7591 75.0542C49.3455 75.3543 49.9468 75.626 50.5276 75.9361C51.759 76.5936 52.2415 77.7096 51.8219 78.8809C51.3832 80.1054 49.9571 80.9885 48.7475 80.7592C47.9989 80.6173 47.3101 80.3269 46.7566 79.7804C46.4553 79.4829 46.2925 79.1203 46.5567 78.7434C46.8392 78.3404 47.2421 78.4821 47.5984 78.6544C47.8003 78.7521 47.9714 78.9119 48.16 79.0383C48.6688 79.3797 49.2101 79.4504 49.7805 79.213C50.1637 79.0535 50.4215 78.7648 50.4929 78.3614C50.5669 77.9436 50.2956 77.6701 49.9727 77.48C49.3269 77.0998 48.6551 76.7638 48.0114 76.3803C47.2717 75.9397 46.5534 75.4155 46.602 74.4504C46.6507 73.484 47.2876 72.8505 48.1098 72.4068C49.2067 71.815 50.2915 72.0007 51.1294 72.9179C51.4984 73.3217 51.5572 73.8029 51.2472 74.2274C50.8916 74.7142 50.4782 74.4154 50.118 74.1647C49.7585 73.9145 49.4065 73.6636 48.8817 73.7949Z" fill="#24712C"/>
<path d="M88.3914 80.7359C86.0264 80.026 85.128 77.6639 86.4555 75.7748C87.1506 74.7855 88.6519 74.2429 89.7786 74.5736C91.1911 74.9882 92.1014 76.056 92.144 77.402C92.1713 78.2639 92.1707 79.1284 92.1381 79.9901C92.1102 80.7263 91.7214 80.9618 91.0453 80.6586C90.7287 80.5167 90.4492 80.5033 90.1278 80.6028C89.5812 80.7718 89.0216 80.8656 88.3914 80.7359ZM90.5082 78.5003C90.5706 78.2364 90.665 77.9755 90.6896 77.7082C90.7695 76.8369 90.2507 76.2212 89.3313 76.0612C88.4249 75.9034 87.6184 76.3242 87.4055 77.066C87.1651 77.9037 87.5188 78.9042 88.1641 79.2121C88.9227 79.5741 89.9009 79.3103 90.5082 78.5003Z" fill="#24712C"/>
<path d="M118.865 80.2202C118.714 78.5738 118.774 76.9827 118.822 75.3945C118.847 74.5856 119.207 74.3955 120.014 74.6534C120.242 74.7263 120.446 74.7335 120.676 74.6572C122.465 74.0629 124.241 75.1706 124.391 77.0284C124.471 78.0217 124.421 79.0269 124.4 80.0261C124.391 80.4239 124.299 80.7943 123.752 80.8048C123.203 80.8155 122.938 80.545 122.92 80.037C122.888 79.1066 122.893 78.1749 122.874 77.2439C122.857 76.4419 122.523 76.103 121.712 76.0449C120.944 75.9899 120.512 76.3343 120.405 77.0888C120.267 78.0614 120.377 79.0413 120.319 80.0162C120.297 80.3795 120.193 80.7088 119.774 80.7726C119.364 80.8351 118.988 80.7809 118.865 80.2202Z" fill="#24712C"/>
<path d="M116.331 77.0096C116.419 79.2859 115.022 80.8705 113.052 80.7968C111.74 80.7478 110.441 79.6128 110.176 78.2835C109.878 76.7958 110.591 75.5143 111.838 74.811C113.487 73.8817 115.977 75.0058 116.331 77.0096ZM114.176 79.1307C114.534 78.9231 114.73 78.5834 114.84 78.2118C115.032 77.5603 114.956 76.9135 114.438 76.4504C113.839 75.9156 113.095 75.9188 112.377 76.1865C111.737 76.425 111.545 76.9744 111.543 77.6135C111.538 79.0976 112.491 79.6875 114.176 79.1307Z" fill="#24712C"/>
<path d="M94.3948 12.2849C93.8117 13.8366 92.5487 14.2532 91.4975 14.1571C90.0987 14.0293 89.0875 12.9729 88.8575 11.5348C88.5948 9.89151 90.4083 8.25915 92.1658 8.55686C94.0128 8.86971 94.9294 10.3682 94.3948 12.2849ZM90.6415 11.687C90.9789 12.4105 91.4406 12.6659 92.0691 12.4766C92.5861 12.3209 92.9413 11.7749 92.8883 11.2173C92.8235 10.5357 92.3458 10.1494 91.6259 10.1965C90.8987 10.244 90.6183 10.6311 90.6415 11.687Z" fill="#24712C"/>
<path d="M54.0299 14.1415C52.6085 14.2627 51.4985 13.6105 50.969 12.3914C50.4969 11.3043 50.7643 10.0518 51.6344 9.27526C52.6032 8.41056 53.9706 8.25576 55.124 8.94709C56.0604 9.5084 56.5295 10.4116 56.4399 11.4733C56.3477 12.5652 55.7968 13.4495 54.7345 13.9172C54.5278 14.0083 54.3025 14.0574 54.0299 14.1415ZM52.5711 10.7748C52.3032 11.5509 52.5112 12.169 53.1308 12.4382C53.6547 12.6658 54.2661 12.4493 54.5964 11.9192C54.9015 11.4293 54.7715 10.726 54.315 10.3974C53.8219 10.0425 53.1061 10.1664 52.5711 10.7748Z" fill="#24712C"/>
<path d="M73.4352 25.615C73.2633 26.1552 72.9003 26.2769 72.449 26.1875C71.9864 26.0959 71.8485 25.7515 71.8455 25.3247C71.8427 24.9387 71.834 24.5526 71.834 24.1665C71.8341 21.3075 71.8355 18.4485 71.8377 15.5895C71.8379 15.3398 71.8349 15.0891 71.8545 14.8405C71.8944 14.335 72.2085 14.1427 72.6846 14.135C73.1474 14.1275 73.4032 14.3204 73.4479 14.8037C73.5902 16.3448 73.5479 17.8908 73.5426 19.4329C73.5355 21.4745 73.6535 23.5196 73.4352 25.615Z" fill="#24712C"/>
<path d="M74.7448 4.84893C73.2211 6.47043 71.8959 6.21806 70.7195 5.01517C69.7709 4.04513 69.8427 2.52322 70.7829 1.57232C71.7751 0.568767 73.2426 0.499207 74.3652 1.40253C75.4099 2.24327 75.5754 3.61828 74.7448 4.84893ZM73.2923 2.71221C72.5948 2.29496 71.8995 2.47933 71.7804 3.12532C71.7003 3.55995 71.7953 3.9367 72.2367 4.1535C72.6654 4.36399 73.0353 4.25141 73.3518 3.93718C73.7266 3.56511 73.6693 3.17133 73.2923 2.71221Z" fill="#24712C"/>
<path d="M36.1107 80.5673C35.9538 80.3195 35.9262 80.0933 35.9259 79.8658C35.9234 78.4137 35.9053 76.9612 35.9339 75.5097C35.9518 74.6015 36.2651 74.4015 37.1402 74.6703C37.4002 74.7501 37.6238 74.704 37.8644 74.6097C38.4139 74.3943 38.9811 74.3974 39.5337 74.579C39.964 74.7204 40.2143 75.0312 40.1588 75.5107C40.101 76.0098 39.7368 76.13 39.3187 76.1035C37.4757 75.9868 37.4447 76.4573 37.4481 78.0826C37.4493 78.6725 37.4649 79.2634 37.4373 79.8521C37.3937 80.7801 37.0098 80.9972 36.1107 80.5673Z" fill="#24712C"/>
<path d="M94.6682 77.3479C94.6716 76.6221 94.6593 75.964 94.683 75.3072C94.7072 74.6374 95.1036 74.3573 95.7288 74.5995C96.0555 74.726 96.3164 74.7171 96.6349 74.5896C97.1562 74.3808 97.7058 74.4122 98.2379 74.5788C98.693 74.7214 98.8793 75.0469 98.8243 75.5217C98.7692 75.9975 98.4361 76.0836 98.0454 76.1007C98.0227 76.1017 98 76.1026 97.9774 76.1038C96.1422 76.2027 96.125 76.2212 96.123 78.0955C96.1224 78.7077 96.1316 79.3201 96.1172 79.932C96.106 80.4047 95.9686 80.7862 95.3831 80.7883C94.7877 80.7906 94.6761 80.4206 94.6781 79.9329C94.6816 79.094 94.6722 78.255 94.6682 77.3479Z" fill="#24712C"/>
<path d="M44.166 76.2623C44.165 77.5101 44.1656 78.6905 44.1622 79.8709C44.1608 80.3723 44.0385 80.7854 43.4207 80.7956C42.8238 80.8054 42.6197 80.4316 42.6158 79.9179C42.6042 78.3972 42.6027 76.8762 42.6152 75.3555C42.6195 74.8253 42.9029 74.476 43.4535 74.4907C43.9925 74.505 44.1798 74.8772 44.1669 75.3777C44.1599 75.65 44.1658 75.9225 44.166 76.2623Z" fill="#24712C"/>
<path d="M42.8191 72.91C43.3305 72.6991 43.813 72.5939 44.099 73.1308C44.2425 73.4004 44.2616 73.7689 44.0055 74.0128C43.7181 74.2864 43.3534 74.2713 42.9936 74.1329C42.6351 73.995 42.5443 73.7114 42.6019 73.3712C42.6269 73.2236 42.7161 73.0868 42.8191 72.91Z" fill="#24712C"/>
</svg>
