<svg width="292" height="223" viewBox="0 0 292 223" fill="none" xmlns="http://www.w3.org/2000/svg">
<path d="M189.847 113.809C176.686 114.748 165.212 110.703 154.883 102.999C154.237 102.518 153.638 101.974 153.032 101.443C151.175 99.8173 151.09 99.8128 149.24 101.349C146.315 103.779 143.202 105.909 139.852 107.745C132.987 111.505 125.697 113.781 117.875 113.95C106.278 114.201 96.0253 110.977 88.3539 101.707C87.6303 100.832 86.9751 99.8947 86.3587 98.941C85.9266 98.2724 85.7148 97.5043 86.4869 96.904C87.2008 96.349 88.0214 96.3046 88.7188 96.8917C89.2546 97.3429 89.7031 97.9162 90.119 98.487C95.8546 106.36 103.825 109.822 113.349 110.313C126.645 110.998 137.967 106.299 147.922 97.8188C150.983 95.2111 151.17 95.2243 154.186 97.8596C161.845 104.552 170.662 108.986 180.787 110.15C188.405 111.026 195.982 110.308 202.94 106.53C206.11 104.808 208.786 102.492 211.055 99.7019C211.683 98.9294 212.265 98.1199 212.888 97.343C213.575 96.4859 214.475 96.2015 215.401 96.8206C216.41 97.496 215.971 98.4324 215.498 99.2086C213.441 102.579 210.668 105.286 207.469 107.562C202.236 111.286 196.323 113.148 189.847 113.809Z" fill="#24712C"/>
<path d="M214.079 112.479C212.483 114.882 210.202 116.375 207.926 117.816C199.264 123.303 189.643 125.445 179.587 124.482C169.493 123.516 160.417 119.582 152.793 112.689C151.092 111.151 151.04 111.138 149.326 112.679C143.75 117.693 137.306 121.163 130.097 123.107C123.32 124.936 116.478 125.134 109.517 123.728C103.793 122.571 98.4841 120.627 93.6015 117.466C91.8805 116.352 90.3151 115.049 88.8292 113.645C88.1007 112.956 87.4354 112.235 88.2987 111.225C89.1401 110.24 90.0756 110.513 90.9526 111.168C92.6241 112.417 94.2642 113.7 96.0312 114.826C100.836 117.889 106.064 119.694 111.694 120.508C125.13 122.453 136.853 118.787 147.039 109.951C147.864 109.236 148.703 108.537 149.541 107.839C150.523 107.021 151.517 107.001 152.504 107.831C153.847 108.961 155.17 110.117 156.529 111.228C161.79 115.529 167.665 118.712 174.347 120.048C187.533 122.686 199.624 120.209 210.308 111.803C210.717 111.481 211.143 111.168 211.601 110.924C212.95 110.205 213.917 110.777 214.079 112.479Z" fill="#24712C"/>
<path d="M120.027 135.414C112.82 135.459 105.854 134.811 99.1414 132.411C98.5562 132.202 97.9792 131.984 97.4969 131.584C96.9105 131.098 96.5041 130.542 96.915 129.738C97.2937 128.997 97.9194 128.737 98.6988 128.927C99.8052 129.197 100.923 129.454 101.992 129.836C108.119 132.028 114.463 132.19 120.853 131.871C127.081 131.561 133.052 130.092 138.781 127.658C142.732 125.978 145.976 123.287 149.084 120.395C150.907 118.699 151.269 118.688 153.086 120.463C156.731 124.023 160.808 126.931 165.608 128.693C173.585 131.621 181.833 132.432 190.291 131.792C194.417 131.48 198.301 130.294 202.232 129.21C202.369 129.172 202.501 129.116 202.639 129.08C203.53 128.848 204.465 128.572 205.012 129.637C205.437 130.463 204.832 131.658 203.679 132.129C200.096 133.594 196.344 134.417 192.508 134.86C187.022 135.493 181.528 135.763 176.042 134.884C167.221 133.471 158.958 130.749 152.31 124.444C151.361 123.544 150.731 123.557 149.829 124.406C143.09 130.755 134.793 133.588 125.835 134.904C123.955 135.181 122.067 135.365 120.027 135.414Z" fill="#24712C"/>
<path d="M106.359 95.8632C110.685 99.1758 115.333 100.878 120.786 99.8559C122.744 99.4886 124.279 98.4526 125.832 97.3625C126.571 96.8441 127.309 96.3145 128.282 96.353C129.523 96.4022 130.086 97.2178 129.654 98.3768C129.323 99.264 128.606 99.8308 127.878 100.364C122.46 104.332 116.557 104.37 110.531 102.223C106.479 100.779 103.001 98.4397 100.751 94.5835C100.168 93.5837 100.192 92.7963 100.831 91.8455C106.329 83.6667 118.83 79.4382 128.592 87.0034C129.729 87.8848 130.703 88.925 131.415 90.1697C131.977 91.1516 132.782 91.5425 133.875 91.5292C135.394 91.5108 136.915 91.5207 138.434 91.5381C139.486 91.5502 140.487 91.6694 140.565 93.053C140.636 94.3161 140.114 94.9017 138.496 94.9551C135.412 95.0568 132.323 95.053 129.237 95.0547C123.347 95.0582 117.457 95.037 111.568 95.0189C110.999 95.0171 110.428 94.9908 109.863 94.9306C108.802 94.8175 108.23 94.2567 108.291 93.1407C108.353 92.0137 109.005 91.5528 110.065 91.5488C113.104 91.5373 116.144 91.5298 119.184 91.5252C121.702 91.5214 124.219 91.5263 126.736 91.5205C127.06 91.5197 127.403 91.5526 127.697 91.2891C127.742 90.5888 127.15 90.3328 126.749 89.995C119.675 84.0436 109.88 86.5135 104.745 92.3255C104.135 93.016 104.077 93.6419 104.766 94.2987C105.281 94.7886 105.779 95.2957 106.359 95.8632Z" fill="#24712C"/>
<path d="M185.044 100.089C190.086 99.9392 193.922 97.5603 197.328 94.2884C198.008 93.6352 197.968 92.9926 197.337 92.3105C191.703 86.2222 182.668 84.4066 175.746 89.615C175.151 90.0635 174.531 90.5064 174.2 91.3137C174.844 91.6894 175.518 91.5413 176.155 91.5429C181.381 91.5557 186.607 91.5436 191.833 91.5562C192.801 91.5585 193.832 91.5702 193.924 92.9148C193.997 93.982 193.72 94.7165 192.409 94.82C187.663 95.195 182.913 94.9379 178.165 95.0017C173.747 95.061 169.328 95.0183 164.91 95.0069C164.247 95.0052 163.584 94.9292 162.922 94.8872C161.841 94.8188 161.289 94.3297 161.35 93.165C161.412 91.9958 162.068 91.5967 163.105 91.5788C164.91 91.5476 166.716 91.5108 168.521 91.5195C169.303 91.5233 169.856 91.2676 170.308 90.6016C176.365 81.6576 188.717 80.7213 197.204 87.5498C198.654 88.7167 199.911 90.0538 201.058 91.52C201.904 92.6021 201.976 93.5609 201.245 94.754C199.034 98.3621 195.775 100.653 191.919 102.108C186.694 104.079 181.456 104.291 176.332 101.662C175.095 101.028 173.983 100.219 173.049 99.1931C172.511 98.6017 171.848 97.9314 172.572 97.0938C173.262 96.2962 174.163 96.0889 175.141 96.6248C175.473 96.8069 175.819 96.9911 176.095 97.2433C178.601 99.5314 181.583 100.333 185.044 100.089Z" fill="#24712C"/>
<path d="M126.711 143.428C133.749 142.683 140.006 140.254 145.598 136.15C146.781 135.282 147.857 134.269 148.967 133.305C150.777 131.736 151.373 131.679 153.08 133.309C156.955 137.012 161.444 139.768 166.484 141.462C174.144 144.037 181.959 144.782 189.862 142.438C191.763 141.875 192.953 142.179 193.272 143.327C193.529 144.252 192.618 145.185 190.902 145.713C183.768 147.908 176.635 147.72 169.438 145.915C164.213 144.604 159.337 142.625 154.999 139.415C154.047 138.711 153.102 137.975 152.265 137.143C151.404 136.286 150.747 136.318 149.866 137.133C146.156 140.563 141.832 142.977 137.08 144.668C129.586 147.334 121.931 148.055 114.103 146.55C112.854 146.31 111.641 145.848 110.44 145.411C109.515 145.074 108.597 144.566 108.985 143.353C109.385 142.103 110.432 141.884 111.537 142.265C113.939 143.094 116.423 143.385 118.927 143.676C121.503 143.974 124.045 143.861 126.711 143.428Z" fill="#24712C"/>
<path d="M127.094 60.3719C125.641 59.8372 124.238 59.6104 122.816 59.4803C122.181 59.4221 121.642 59.5805 121.58 60.3223C121.167 65.2909 121.742 69.9234 126.1 73.2306C127.368 74.1929 128.831 74.7485 130.338 75.2035C130.936 75.3839 131.511 75.6039 131.949 76.0689C132.381 76.5275 132.465 77.0666 132.256 77.652C132.06 78.2023 131.639 78.4735 131.079 78.5483C130.361 78.6442 129.659 78.5652 128.97 78.3398C123.325 76.4924 119.795 72.7101 118.281 66.9612C117.471 63.8869 117.665 60.8723 118.345 57.8405C118.733 56.1108 119.394 55.7621 121.191 55.8433C125.623 56.0438 129.718 57.1744 133.237 59.9655C136.885 62.8593 138.596 66.7475 138.912 71.3062C138.98 72.2972 139.058 73.315 138.911 74.2875C138.587 76.4416 139.369 78.1411 140.732 79.7219C141.597 80.7251 142.325 81.8451 143.122 82.9065C143.726 83.7097 143.761 84.5318 142.992 85.1872C142.212 85.8516 141.312 85.6191 140.673 84.9704C139.745 84.0277 138.918 82.9792 138.101 81.9344C133.779 76.4054 129.476 70.8624 125.162 65.3269C124.391 64.3374 124.365 63.1774 125.198 62.5439C126.205 61.7782 127.088 62.2188 127.839 63.0046C129.946 65.2105 131.458 67.8702 133.345 70.2457C133.899 70.9429 134.38 71.697 135.11 72.2837C136.449 68.4184 132.628 62.7357 127.094 60.3719Z" fill="#24712C"/>
<path d="M171.413 75.3491C175.077 74.2304 178.028 72.3226 179.488 68.7785C180.559 66.176 180.95 63.4104 180.542 60.5701C180.423 59.7404 180.065 59.4057 179.233 59.4955C172.693 60.2012 167.93 63.305 166.711 70.5598C166.619 71.1016 166.462 71.6692 166.858 72.2739C167.711 71.9232 168.085 71.117 168.581 70.4798C170.066 68.5727 171.476 66.6083 172.937 64.6827C173.366 64.1181 173.846 63.5881 174.339 63.0783C175.063 62.3314 175.864 61.6243 176.9 62.5411C177.875 63.4031 177.694 64.3488 176.937 65.3001C175.344 67.303 173.768 69.3198 172.204 71.3456C168.873 75.6594 165.556 79.9827 162.232 84.3013C162.058 84.5265 161.903 84.7759 161.692 84.9597C160.868 85.6763 159.886 85.7211 159.066 85.1358C158.196 84.5138 158.479 83.6238 159.028 82.8706C160.145 81.3402 161.263 79.8095 162.427 78.3145C163.038 77.5285 163.25 76.7726 163.167 75.7188C162.61 68.5917 164.407 62.4309 170.946 58.507C174.233 56.5346 177.921 55.8565 181.72 55.7606C182.687 55.7363 183.38 56.2192 183.624 57.1602C185.927 66.0256 182.33 75.8655 172.447 78.4547C171.652 78.6629 170.855 78.8642 170.183 78.1726C169.239 77.2021 169.635 76.233 171.413 75.3491Z" fill="#24712C"/>
<path d="M109.16 71.048C110.371 71.3551 109.955 70.6307 109.742 70.2301C107.861 66.6895 104.01 63.6564 99.0951 64.4582C97.8321 64.6643 96.5925 65.0121 95.3407 65.2885C94.4464 65.486 94.0416 65.9389 94.3064 66.9128C95.8469 72.5786 99.2106 76.3723 105.382 76.1781C106.284 76.1497 107.187 76.1654 108.09 76.1638C109.019 76.1623 109.673 76.5526 109.788 77.5197C109.912 78.5736 109.235 79.104 108.332 79.3184C105.866 79.9042 103.428 79.5732 101.009 78.9808C95.8568 77.7191 93.0475 74.1251 91.4372 69.3649C91.0735 68.2899 90.8922 67.1527 90.5149 66.0834C90.0033 64.6331 90.5874 63.6646 91.7858 62.997C99.254 58.8368 109.744 60.3302 113.362 69.9293C113.546 70.4166 113.764 70.9005 113.87 71.4061C114.251 73.229 115.149 74.5905 116.922 75.3903C117.87 75.8178 118.638 76.5752 117.972 77.7711C117.322 78.9382 116.308 78.7182 115.371 78.2207C110.258 75.5041 105.156 72.7671 100.065 70.0088C99.1019 69.4871 98.2505 68.7639 98.8916 67.5104C99.4079 66.501 100.261 66.2874 101.292 66.8445C103.881 68.2426 106.478 69.6253 109.16 71.048Z" fill="#24712C"/>
<path d="M185.461 75.2023C186.908 74.528 187.556 73.4491 187.967 72.0218C189.711 65.9553 193.43 61.8645 199.932 60.9548C203.6 60.4417 207.106 61.2883 210.375 63.0105C211.218 63.4541 211.801 64.1804 211.619 65.2141C210.915 69.1896 209.701 72.9274 206.735 75.8921C204.577 78.0494 201.912 79.028 198.973 79.398C197.704 79.5577 196.418 79.5908 195.137 79.6427C194.47 79.6697 193.808 79.5629 193.204 79.2424C192.419 78.8257 192.196 78.1478 192.356 77.3214C192.516 76.4936 193.096 76.1158 193.884 76.1012C194.88 76.0828 195.878 76.1729 196.875 76.1632C202.224 76.1112 206.086 73.132 207.501 67.9871C208.176 65.5296 208.155 65.5588 205.608 64.9092C202.204 64.0409 198.931 63.9836 195.92 66.1242C194.148 67.3845 192.919 69.0615 191.991 71.0464C192.703 71.3448 193.103 70.9121 193.535 70.6884C195.98 69.4227 198.424 68.1558 200.845 66.8449C201.765 66.3468 202.511 66.4954 203.095 67.2874C203.689 68.0923 203.327 68.7976 202.709 69.4356C202.104 70.062 201.351 70.4735 200.6 70.8751C196.08 73.2921 191.551 75.6945 187.022 78.0944C186.688 78.2711 186.336 78.4432 185.972 78.526C185.143 78.7146 184.429 78.4419 184.025 77.7011C183.624 76.9648 183.942 76.3245 184.555 75.8275C184.812 75.6189 185.098 75.4464 185.461 75.2023Z" fill="#24712C"/>
<path d="M129.986 39.8824C130.932 41.7936 131.825 43.6105 132.876 45.7489C133.452 43.7387 133.176 42.1759 132.532 40.6432C131.375 37.8865 129.201 36.2342 126.516 35.1229C125.654 34.766 125.15 35.0274 124.916 35.8902C124.158 38.6922 123.975 41.4942 125.09 44.2471C125.671 45.6805 126.843 46.5483 128.187 47.2495C128.965 47.6548 129.838 48.0379 129.818 49.1845C129.794 50.5772 128.988 51.2388 127.688 50.7456C124.593 49.5706 122.482 47.4529 121.331 44.2931C120.154 41.0641 120.648 37.947 121.617 34.8322C122.936 30.5925 123.148 30.4698 127.419 31.8725C131.907 33.3459 135.024 36.311 136.365 40.8585C137.044 43.1578 136.886 45.5787 136.071 47.8542C135.406 49.7076 135.256 51.4329 136.449 53.1144C136.555 53.264 136.588 53.4647 136.658 53.6403C137.042 54.6012 136.942 55.4589 135.932 55.9244C134.931 56.3858 134.154 55.9115 133.671 55.0314C132.851 53.537 132.071 52.0188 131.323 50.4871C129.869 47.5085 128.458 44.5085 127.004 41.5295C126.691 40.8868 126.554 40.2931 126.974 39.6584C127.847 38.3389 129.043 38.3896 129.986 39.8824Z" fill="#24712C"/>
<path d="M166.764 50.5905C166.391 49.1634 165.96 47.8592 165.641 46.5286C163.906 39.3056 169.574 32.1428 177.359 31.1681C178.487 31.0269 179.269 31.4184 179.651 32.3927C181.368 36.7764 182.327 41.2038 180.101 45.7296C178.937 48.097 177.031 49.6635 174.672 50.7356C173.73 51.164 172.984 50.8036 172.474 50.0007C171.938 49.1553 172.315 48.4685 173.018 47.9045C173.129 47.8157 173.243 47.7246 173.368 47.6609C177.967 45.3292 178.331 41.3778 177.456 36.9724C177.019 34.772 176.63 34.6027 174.6 35.5731C171.374 37.1152 169.314 39.5295 168.926 43.1693C168.858 43.8114 168.778 44.4943 169.27 45.1665C170.357 44.0689 170.68 42.5894 171.423 41.3578C171.814 40.7097 172.147 40.0222 172.585 39.4079C173.008 38.8134 173.622 38.5566 174.332 38.9261C175.062 39.3061 175.534 39.8765 175.34 40.76C175.26 41.1255 175.099 41.4797 174.934 41.8194C172.887 46.0398 170.837 50.2581 168.775 54.4713C168.59 54.8507 168.368 55.231 168.087 55.5417C167.443 56.2522 166.657 56.2432 165.894 55.7703C165.14 55.3022 164.971 54.6279 165.358 53.8052C165.841 52.7785 166.292 51.7367 166.764 50.5905Z" fill="#24712C"/>
<path d="M152.852 39.794C156.236 43.1054 158.647 46.89 160.112 51.301C161.902 56.6879 160.452 61.3534 157.115 65.6416C156.491 66.4434 155.699 66.9489 154.642 66.3988C153.695 65.9061 153.298 65.2098 153.957 64.2058C154.165 63.8893 154.361 63.5597 154.606 63.2736C157.97 59.3502 157.981 55.0202 156.129 50.4934C155.118 48.0208 153.704 45.782 151.92 43.7804C151.463 43.2679 151.003 42.8747 150.407 43.5653C146.88 47.6475 144.142 52.0349 144.888 57.7734C145.173 59.9727 146.294 61.7604 147.602 63.4732C148.239 64.3081 148.997 65.1654 147.786 66.1516C146.811 66.9461 145.923 66.7926 144.892 65.512C141.005 60.6808 140.313 55.332 142.545 49.6281C144.012 45.8798 146.247 42.5961 149.199 39.8254C150.775 38.3469 151.042 38.3426 152.852 39.794Z" fill="#24712C"/>
<path d="M162.433 150.875C165.499 151.667 168.494 152.072 171.554 151.903C171.928 151.882 172.32 151.912 172.683 152.003C173.657 152.246 174.094 152.901 174.007 153.896C173.922 154.864 173.35 155.315 172.412 155.37C165.057 155.804 158.25 154.306 152.372 149.635C151.501 148.943 150.829 148.788 149.893 149.542C144.044 154.248 137.257 155.797 129.888 155.394C128.742 155.332 128.07 154.937 128.031 153.751C127.995 152.626 128.802 151.828 130.036 151.866C132.608 151.944 135.151 151.805 137.679 151.268C141.701 150.414 145.323 148.75 148.507 146.147C148.874 145.846 149.259 145.568 149.633 145.276C150.648 144.485 151.621 144.529 152.589 145.379C155.445 147.887 158.689 149.712 162.433 150.875Z" fill="#24712C"/>
<path d="M116.125 181.051C116.197 181.984 116.801 181.993 117.381 181.994C118.994 181.995 120.607 181.956 122.22 181.975C123.175 181.986 123.446 181.488 123.43 180.637C123.405 179.217 123.417 177.797 123.422 176.377C123.425 175.222 123.939 174.414 125.144 174.354C126.334 174.295 126.502 175.306 126.529 176.136C126.622 179.02 126.629 181.907 126.644 184.793C126.654 186.686 126.672 188.581 126.591 190.471C126.549 191.461 126.229 192.374 124.934 192.347C123.609 192.32 123.443 191.408 123.432 190.39C123.417 189.065 123.397 187.739 123.423 186.414C123.44 185.584 123.112 185.194 122.255 185.207C120.595 185.232 118.934 185.236 117.273 185.213C116.411 185.201 116.094 185.603 116.107 186.425C116.128 187.703 116.161 188.985 116.073 190.258C116.001 191.297 115.894 192.446 114.371 192.361C112.986 192.283 112.869 191.288 112.868 190.232C112.863 185.688 112.862 181.144 112.861 176.6C112.861 176.411 112.866 176.221 112.886 176.033C112.986 175.071 113.504 174.364 114.458 174.296C115.514 174.221 115.986 175.068 116.043 175.959C116.15 177.609 116.102 179.269 116.125 181.051Z" fill="#24712C"/>
<path d="M131.713 182.61C131.714 180.621 131.674 178.774 131.726 176.93C131.785 174.884 132.47 174.158 134.473 174.104C136.844 174.039 139.218 174.062 141.59 174.095C142.503 174.108 143.434 174.232 143.733 175.345C144.086 176.655 143.508 177.494 142.127 177.537C140.23 177.596 138.331 177.605 136.434 177.569C135.35 177.549 134.93 177.944 134.922 179.063C134.898 182.066 134.855 182.064 137.915 182.034C138.769 182.026 139.625 181.998 140.477 182.046C141.185 182.087 142 182.128 142.038 183.112C142.075 184.1 141.734 184.853 140.598 185.046C139.227 185.279 137.85 185.197 136.48 185.168C135.321 185.143 134.784 185.541 134.935 186.726C134.965 186.959 134.941 187.199 134.942 187.436C134.953 189.339 134.953 189.34 136.837 189.346C138.592 189.351 140.348 189.348 142.104 189.361C143.027 189.368 143.722 189.754 143.73 190.749C143.737 191.753 143.132 192.336 142.114 192.347C139.367 192.376 136.628 192.701 133.87 192.417C132.379 192.264 131.746 191.527 131.734 190.135C131.713 187.674 131.718 185.213 131.713 182.61Z" fill="#24712C"/>
<path d="M59.6846 186.222C59.2089 187.223 59.4386 188.186 59.3782 189.124C59.3356 189.784 59.3521 190.452 59.2631 191.106C59.1543 191.906 58.7154 192.369 57.8261 192.358C56.9458 192.348 56.4853 191.904 56.4067 191.089C56.2931 189.912 56.1837 188.729 56.187 187.548C56.1973 183.806 56.0333 180.061 56.3478 176.322C56.4385 175.243 56.8336 174.381 57.9753 174.368C59.181 174.355 59.3275 175.408 59.3562 176.322C59.4074 177.95 59.3706 179.581 59.3706 181.21C59.5247 181.254 59.6787 181.299 59.8328 181.343C60.924 180.122 62.0336 178.917 63.1006 177.676C63.9372 176.702 64.7739 175.73 65.7765 174.925C66.334 174.478 66.9885 173.997 67.6826 174.634C68.4301 175.319 68.4137 176.219 67.8313 176.951C66.5919 178.508 65.338 180.072 63.9225 181.464C62.9455 182.425 63.1229 182.995 63.9456 183.903C65.6004 185.729 67.1337 187.666 68.6984 189.572C69.3011 190.306 69.7927 191.174 68.9243 191.964C68.0346 192.774 67.2491 192.089 66.5591 191.483C64.768 189.913 63.3666 187.979 61.7148 186.278C61.1217 185.668 60.4802 185.106 59.6846 186.222Z" fill="#24712C"/>
<path d="M211.302 188.49C210.622 187.011 210.654 185.544 210.662 184.074C210.676 181.521 210.67 178.967 210.662 176.413C210.658 175.268 211.104 174.402 212.319 174.353C213.515 174.305 213.712 175.304 213.819 176.225C213.889 176.833 213.872 177.452 213.879 178.066C213.9 179.808 213.982 179.873 215.662 179.403C220.133 178.154 224.864 182.385 223.809 186.791C223.119 189.672 221.333 191.7 218.294 192.244C215.513 192.742 213.449 191.423 211.802 189.309C211.628 189.086 211.496 188.831 211.302 188.49ZM214.513 188.034C215.354 189.114 216.552 189.365 217.807 189.328C219.484 189.278 220.634 188.022 220.835 186.157C221.017 184.464 220.198 183.134 218.63 182.673C217.206 182.254 215.705 182.162 214.66 183.34C213.472 184.678 213.649 186.295 214.513 188.034Z" fill="#24712C"/>
<path d="M171.538 187.811C172.465 187.599 173.078 187.886 173.334 188.678C173.62 189.563 173.005 190.109 172.4 190.577C168.771 193.39 163.097 192.642 160.292 188.993C158.132 186.182 157.488 183.137 158.955 179.809C160.448 176.421 163.217 174.678 166.759 174.151C168.613 173.875 170.312 174.604 171.817 175.684C172.623 176.262 172.791 177.075 172.327 177.946C171.808 178.92 170.963 178.846 170.111 178.482C168.841 177.939 167.609 177.475 166.143 177.708C163.582 178.115 162.188 179.688 161.637 182.031C161.09 184.352 161.704 186.483 163.463 188.129C165.06 189.625 166.988 189.575 168.935 188.88C169.782 188.577 170.6 188.194 171.538 187.811Z" fill="#24712C"/>
<path d="M101.442 177.765C100.683 177.936 100.187 178.243 100.155 178.994C100.123 179.73 100.624 180.101 101.186 180.389C102.409 181.014 103.663 181.581 104.875 182.227C107.443 183.597 108.449 185.923 107.574 188.364C106.659 190.916 103.685 192.757 101.162 192.279C99.6005 191.983 98.1639 191.378 97.0095 190.239C96.381 189.619 96.0415 188.863 96.5925 188.078C97.1817 187.238 98.0221 187.533 98.7652 187.892C99.1863 188.096 99.5432 188.429 99.9365 188.692C100.998 189.404 102.127 189.551 103.316 189.056C104.116 188.724 104.653 188.122 104.802 187.282C104.957 186.411 104.391 185.841 103.717 185.445C102.371 184.652 100.969 183.952 99.6267 183.153C98.0838 182.234 96.5856 181.142 96.687 179.131C96.7885 177.117 98.117 175.796 99.8318 174.872C102.12 173.638 104.382 174.025 106.13 175.937C106.9 176.778 107.022 177.781 106.376 178.666C105.634 179.68 104.772 179.058 104.02 178.535C103.271 178.014 102.536 177.491 101.442 177.765Z" fill="#24712C"/>
<path d="M183.847 192.23C178.914 190.751 177.041 185.828 179.809 181.891C181.259 179.829 184.39 178.698 186.74 179.387C189.687 180.251 191.585 182.477 191.674 185.282C191.731 187.078 191.73 188.88 191.662 190.676C191.604 192.21 190.793 192.701 189.382 192.069C188.722 191.773 188.139 191.746 187.469 191.953C186.329 192.305 185.162 192.501 183.847 192.23ZM188.262 187.571C188.392 187.021 188.589 186.477 188.641 185.92C188.807 184.104 187.725 182.821 185.808 182.488C183.917 182.159 182.235 183.036 181.791 184.582C181.29 186.327 182.027 188.413 183.373 189.054C184.955 189.809 186.996 189.259 188.262 187.571Z" fill="#24712C"/>
<path d="M247.407 191.154C247.092 187.723 247.216 184.406 247.318 181.097C247.37 179.411 248.121 179.014 249.803 179.552C250.278 179.704 250.705 179.719 251.184 179.56C254.915 178.321 258.62 180.63 258.933 184.502C259.1 186.572 258.996 188.667 258.952 190.749C258.934 191.578 258.742 192.35 257.601 192.372C256.455 192.394 255.902 191.831 255.865 190.772C255.798 188.833 255.808 186.891 255.768 184.951C255.734 183.279 255.037 182.573 253.345 182.452C251.744 182.337 250.843 183.055 250.619 184.628C250.331 186.655 250.561 188.697 250.44 190.729C250.395 191.486 250.177 192.172 249.303 192.305C248.447 192.435 247.663 192.322 247.407 191.154Z" fill="#24712C"/>
<path d="M242.121 184.462C242.306 189.206 239.392 192.509 235.283 192.355C232.547 192.253 229.838 189.888 229.284 187.117C228.664 184.017 230.149 181.346 232.751 179.88C236.189 177.944 241.383 180.286 242.121 184.462ZM237.627 188.883C238.374 188.45 238.782 187.742 239.011 186.968C239.414 185.61 239.254 184.262 238.173 183.297C236.925 182.182 235.374 182.189 233.875 182.747C232.54 183.244 232.14 184.389 232.135 185.721C232.125 188.814 234.114 190.044 237.627 188.883Z" fill="#24712C"/>
<path d="M196.37 49.571C195.154 52.8048 192.519 53.673 190.327 53.4728C187.409 53.2065 185.3 51.0048 184.821 48.0076C184.273 44.5828 188.055 41.1808 191.721 41.8013C195.573 42.4533 197.485 45.5763 196.37 49.571ZM188.542 48.3248C189.245 49.8328 190.208 50.365 191.519 49.9705C192.598 49.646 193.338 48.508 193.228 47.346C193.093 45.9254 192.096 45.1203 190.595 45.2184C189.078 45.3175 188.493 46.1242 188.542 48.3248Z" fill="#24712C"/>
<path d="M112.18 53.4394C109.215 53.6921 106.9 52.3329 105.796 49.792C104.811 47.5265 105.369 44.9161 107.183 43.2977C109.204 41.4956 112.056 41.1729 114.462 42.6137C116.415 43.7836 117.393 45.6659 117.206 47.8786C117.014 50.1542 115.865 51.9973 113.649 52.9721C113.218 53.1618 112.748 53.2643 112.18 53.4394ZM109.137 46.4229C108.579 48.0404 109.012 49.3285 110.305 49.8896C111.397 50.364 112.673 49.9128 113.361 48.8079C113.998 47.7869 113.727 46.3212 112.774 45.6364C111.746 44.8966 110.253 45.1548 109.137 46.4229Z" fill="#24712C"/>
<path d="M152.654 77.3524C152.296 78.4783 151.538 78.7319 150.597 78.5456C149.632 78.3546 149.345 77.6369 149.338 76.7474C149.333 75.9428 149.314 75.1382 149.314 74.3336C149.315 68.3751 149.318 62.4167 149.322 56.4582C149.323 55.9377 149.316 55.4152 149.357 54.8971C149.44 53.8436 150.095 53.4427 151.089 53.4267C152.054 53.4111 152.587 53.8131 152.681 54.8205C152.977 58.0323 152.889 61.2542 152.878 64.4682C152.863 68.7231 153.109 72.9852 152.654 77.3524Z" fill="#24712C"/>
<path d="M155.385 34.0722C152.207 37.4516 149.443 36.9256 146.989 34.4187C145.011 32.397 145.161 29.2252 147.121 27.2434C149.191 25.1519 152.252 25.0069 154.593 26.8895C156.772 28.6417 157.117 31.5074 155.385 34.0722ZM152.355 29.6191C150.901 28.7495 149.45 29.1337 149.202 30.48C149.035 31.3859 149.233 32.1711 150.154 32.6229C151.048 33.0616 151.819 32.8269 152.48 32.1721C153.261 31.3966 153.142 30.5759 152.355 29.6191Z" fill="#24712C"/>
<path d="M74.8063 191.878C74.4791 191.362 74.4215 190.891 74.4207 190.417C74.4157 187.39 74.3779 184.363 74.4375 181.338C74.4748 179.445 75.1283 179.028 76.9535 179.588C77.4958 179.755 77.9622 179.659 78.464 179.462C79.61 179.013 80.7931 179.02 81.9457 179.398C82.8432 179.693 83.3653 180.341 83.2495 181.34C83.1289 182.38 82.3693 182.631 81.4973 182.575C77.6534 182.332 77.5887 183.313 77.5956 186.7C77.5981 187.93 77.6308 189.161 77.5731 190.388C77.4822 192.322 76.6816 192.774 74.8063 191.878Z" fill="#24712C"/>
<path d="M196.939 185.17C196.946 183.657 196.92 182.286 196.97 180.917C197.02 179.521 197.847 178.937 199.151 179.442C199.832 179.706 200.377 179.687 201.041 179.421C202.128 178.986 203.275 179.052 204.384 179.399C205.334 179.696 205.722 180.375 205.607 181.364C205.492 182.356 204.798 182.535 203.983 182.571C203.936 182.573 203.888 182.575 203.841 182.577C200.013 182.783 199.977 182.822 199.973 186.728C199.972 188.004 199.991 189.28 199.961 190.556C199.938 191.541 199.651 192.336 198.43 192.34C197.188 192.345 196.956 191.574 196.96 190.558C196.967 188.809 196.947 187.061 196.939 185.17Z" fill="#24712C"/>
<path d="M91.6073 182.906C91.6053 185.506 91.6065 187.966 91.5994 190.426C91.5964 191.471 91.3414 192.332 90.0528 192.353C88.8079 192.374 88.3822 191.595 88.374 190.524C88.3499 187.355 88.3466 184.185 88.3727 181.016C88.3818 179.911 88.9728 179.183 90.1211 179.213C91.2455 179.243 91.6361 180.019 91.6091 181.062C91.5945 181.629 91.6069 182.197 91.6073 182.906Z" fill="#24712C"/>
<path d="M88.7978 175.919C89.8645 175.479 90.8708 175.26 91.4672 176.379C91.7666 176.941 91.8065 177.709 91.2723 178.217C90.6729 178.788 89.9122 178.756 89.1617 178.468C88.414 178.18 88.2247 177.589 88.3449 176.88C88.3971 176.573 88.583 176.287 88.7978 175.919Z" fill="#24712C"/>
</svg>
