<svg width="83" height="83" viewBox="0 0 83 83" fill="none" xmlns="http://www.w3.org/2000/svg">
<path d="M57.0625 25.9375C56.5956 25.9375 56.1806 25.9375 55.7137 25.9894C54.1207 21.4264 51.1476 17.472 47.2066 14.6742C43.2656 11.8765 38.5518 10.374 33.7188 10.375C20.8538 10.375 10.375 20.8538 10.375 33.7188C10.375 35.3787 10.5825 37.0387 10.9975 38.8025C4.25375 42.3819 0 49.2812 0 57.0625C0 68.5269 9.28562 77.8125 20.75 77.8125H41.5V51.2525L33.4075 59.345C32.1625 60.59 30.0875 60.59 28.8425 59.345C27.5975 58.1 27.5975 56.025 28.8425 54.78L39.9437 43.6269C42.2262 41.3444 45.9094 41.3444 48.1919 43.6269L59.345 54.78C60.59 56.025 60.59 58.1 59.345 59.345C58.7225 59.9675 57.8925 60.2787 57.0625 60.2787C56.2325 60.2787 55.4025 59.9675 54.78 59.345L46.6875 51.2525V77.8125H57.0625C71.38 77.8125 83 66.1925 83 51.875C83 37.5575 71.38 25.9375 57.0625 25.9375Z" fill="#25632D"/>
</svg>
