<svg width="83" height="83" viewBox="0 0 83 83" fill="none" xmlns="http://www.w3.org/2000/svg">
<path d="M36.8673 48.0695L28.9432 39.8438C28.5314 39.4149 28.0299 39.1852 27.4387 39.1545C26.8445 39.1239 26.3048 39.3629 25.8195 39.8714C25.3489 40.3616 25.1135 40.9038 25.1135 41.4981C25.1135 42.0925 25.3489 42.6347 25.8195 43.1249L34.3701 52.0306C35.0848 52.772 35.9173 53.1427 36.8673 53.1427C37.8174 53.1427 38.6498 52.772 39.3646 52.0306L57.1805 33.4747C57.61 33.0275 57.835 32.5005 57.8556 31.8939C57.8762 31.2843 57.6511 30.7267 57.1805 30.2212C56.6952 29.7158 56.1702 29.4584 55.6054 29.4492C55.0407 29.44 54.5171 29.6882 54.0347 30.1937L36.8673 48.0695ZM26.8078 81.0914L21.0015 70.9817L10.0551 68.5737C9.17859 68.4053 8.48001 67.9151 7.95939 67.1032C7.43876 66.2945 7.22404 65.4336 7.31522 64.5207L8.36089 52.7751L0.93536 43.952C0.311786 43.2873 0 42.4693 0 41.4981C0 40.527 0.311786 39.709 0.93536 39.0442L8.36089 30.2212L7.31522 18.4802C7.22698 17.5642 7.4417 16.7018 7.95939 15.893C8.48001 15.0843 9.17859 14.5941 10.0551 14.4225L20.9971 12.0192L26.8034 1.9095C27.2799 1.08847 27.9196 0.521716 28.7226 0.209235C29.5256 -0.10631 30.3566 -0.0649525 31.2154 0.333308L41.5 4.85969L51.7801 0.333308C52.642 -0.0649525 53.4744 -0.10631 54.2774 0.209235C55.0804 0.521716 55.7201 1.08847 56.1966 1.9095L61.9985 12.0192L72.9449 14.4225C73.8214 14.5941 74.52 15.0843 75.0406 15.893C75.5612 16.7018 75.776 17.5642 75.6848 18.4802L74.6435 30.2212L82.0646 39.0442C82.6882 39.709 83 40.527 83 41.4981C83 42.4693 82.6882 43.2888 82.0646 43.9566L74.6435 52.7751L75.6848 64.5161C75.773 65.4321 75.5583 66.2945 75.0406 67.1032C74.52 67.9151 73.8214 68.4053 72.9449 68.5737L62.0029 70.9817L56.1966 81.0914C55.7201 81.9094 55.0804 82.4761 54.2774 82.7917C53.4744 83.1072 52.6434 83.0643 51.7846 82.663L41.5 78.1366L31.2199 82.663C30.358 83.0613 29.5256 83.1026 28.7226 82.7871C27.9196 82.4746 27.2799 81.9078 26.8034 81.0868" fill="#212227"/>
</svg>
